<svg width="1254" height="1254" viewBox="0 0 1254 1254" fill="none" xmlns="http://www.w3.org/2000/svg">
<g clip-path="url(#clip0_0_1)">
<path fill-rule="evenodd" clip-rule="evenodd" d="M533.328 101.603C489.076 108.5 460.691 117.526 450.185 128.032C438.569 139.645 438.752 142.881 451.524 151.966C500.45 186.777 740.094 194.416 827.6 163.954C874.589 147.603 870.922 125.939 818.669 111.119C773.698 98.3703 624.996 90.5 624.996 97.5C624.996 99.5 624.14 111.5 631.14 106C641.6 106.225 631.318 105.783 624.996 108.5C619.885 110.698 684.481 110.46 705.155 110.643C763.16 111.145 847.129 128.159 847.129 139.409C847.129 145.523 823.779 153.109 776.927 162.22C734.52 170.466 577.685 170.645 531.401 162.497C472.284 152.087 452.468 144.729 459.789 135.899C468.355 125.586 545.757 111.312 597.778 110.46C624.996 110.014 624.996 110.46 624.996 106V103.765C624.996 99.5001 624.996 100.5 624.996 97.5C628.64 93.5 572.12 95.5553 533.328 101.603ZM480.866 243.834C478.871 247.064 463.862 295.288 448.425 348.08C446.593 354.34 438.792 385.079 431.091 416.387C418.244 468.581 417.075 477.875 417 528.332C416.922 578.646 417.787 585.768 427.117 611.573C440.477 648.504 463.489 683.309 491.058 708.255C513.098 728.202 575.419 763.608 588.491 763.608C592.224 763.608 611.386 747.162 631.078 727.062C667.924 689.449 695.597 664.943 701.217 664.943C702.977 664.943 699.251 670.492 692.932 677.275C686.613 684.061 674.818 699.001 666.709 710.479C658.604 721.958 642.769 743.002 631.529 757.243C609.587 785.03 609.456 785.726 618.822 822.425C620.955 830.775 624.668 857.955 627.074 882.829C634.144 955.796 621.497 1060.79 602.85 1083.95C596.694 1091.6 584.703 1096.97 552.321 1106.56C495.006 1123.54 480.467 1133.89 495.94 1146.73C511.772 1159.87 589.523 1173.13 651.942 1173.32C690.431 1173.44 762.245 1165.5 785.931 1158.51C803.023 1153.46 816.771 1144.13 816.771 1137.57C816.771 1125.19 807.758 1120.93 739.755 1101.15C704.048 1090.76 698.97 1084.86 689.307 1042.52C679.181 998.148 679.073 865.57 689.134 822.425C699.565 777.666 703.32 772.216 732.626 759.278C801.629 728.816 838.292 698.168 863.636 649.765C887.596 604.004 890.783 589.458 890.64 526.435C890.503 466.563 887.23 444.853 866.056 363.258C846.59 288.234 843.252 276.21 836.812 257.955L830.451 239.929H656.863C541.956 239.929 482.463 241.251 480.866 243.834ZM492.87 258.01C491.143 260.809 456.269 379.524 456.269 382.614C456.269 383.446 458.826 384.129 461.948 384.129C469.436 384.129 497.093 358.967 503.745 346.104C513.447 327.343 536.519 308.331 567.643 293.456C584.654 285.327 603.588 273.372 609.718 266.89L620.863 255.107H557.765C523.061 255.107 493.856 256.414 492.87 258.01ZM638.122 272.085C627.182 281.425 603.862 296.365 586.303 305.29C568.744 314.215 547.119 328.457 538.243 336.947C522.545 351.956 495.953 387.283 498.595 389.625C499.317 390.265 509.548 393.557 521.327 396.937C545.509 403.879 566.317 423.46 566.317 439.289C566.317 444.997 568.496 448.641 571.911 448.641C579.514 448.641 629.197 428.688 660.371 413.115C710.518 388.061 723.123 380.181 735.509 366.129C761.311 336.856 816.65 264.424 816.709 259.852C816.755 256.205 798.396 255.107 737.394 255.107H658.01L638.122 272.085ZM814.521 291.013C807.121 300.522 799.65 309.976 792.106 319.372C785 328.238 778.044 337.215 771.232 346.306C761.876 358.928 726.441 400.519 705.423 423.542C693.321 436.807 676.118 462.644 657.781 495.111C647.818 512.759 646.786 516.423 652.376 514.333C664.547 509.784 696.41 489.432 725.696 467.494C762.696 439.788 774.23 435.151 791.783 440.944C804.63 445.183 806.263 444.615 830.902 427.317C839.895 421.001 848.892 414.692 857.892 408.389C859.747 407.106 848.304 357.7 836.11 314.333L825.549 276.791L814.521 291.013ZM676.31 417.066C662.774 424.453 635.323 437.568 615.308 446.212C561.615 469.394 561.524 469.479 559.443 498.191C557.846 520.299 558.248 522.066 563.826 517.441C569.792 512.488 576.023 512.693 612.079 519.029C624.596 521.23 626.284 520.335 635.15 506.841C640.405 498.834 651.011 480.958 658.715 467.115C666.419 453.272 679.729 433.985 688.292 424.26C696.858 414.529 703.203 405.907 702.393 405.101C701.586 404.291 689.853 409.676 676.31 417.066ZM473.345 414.287C452.876 423.532 442.55 436.003 439.693 454.95C438.383 463.637 436.15 473.777 434.726 477.48C432.642 482.911 434.66 482.385 445.153 474.753C452.311 469.548 464.874 461.968 473.074 457.912C481.277 453.856 495.617 443.331 504.94 434.524C519.257 421.008 521.147 417.608 517.078 412.706C510.753 405.084 492.247 405.754 473.345 414.287ZM519.322 436.807C511.409 444.909 493.928 457.978 480.471 465.848C467.013 473.718 454.947 481.866 453.657 483.952C450.691 488.753 477.055 484.772 499.101 477.091C507.892 474.028 519.041 471.497 523.877 471.468C550.927 471.295 563.434 439.272 542.031 424.982C535.549 420.655 534.628 421.132 519.322 436.807ZM840.607 433.123C832.221 439.2 821.951 449.02 817.784 454.944C808.708 467.859 799.254 493.106 802.344 496.192C804.698 498.55 845.747 489.073 863.548 482.062C871.898 478.77 873.792 476.076 872.098 469.881C870.899 465.505 868.829 452.955 867.486 441.999C866.056 430.259 863.169 422.079 860.456 422.079C857.928 422.079 848.997 427.049 840.607 433.123ZM770.337 452.733C764.626 454.281 744.99 466.498 726.699 479.884C708.408 493.266 682.701 509.924 669.573 516.886C656.445 523.849 647.053 530.893 648.703 532.535C654.502 538.319 701.103 540.634 722.47 536.199C734.125 533.776 752.791 526.324 763.953 519.629C782.388 508.575 784.853 505.457 790.881 485.592C794.532 473.561 796.609 461.351 795.499 458.451C792.821 451.479 783.116 449.272 770.337 452.733ZM506.347 488.711C476.042 496.865 473.211 499.281 452.164 534.916L432.675 567.902L437.276 587.012C439.804 597.524 444.683 612.067 448.121 619.329C453.693 631.099 456.935 633.127 477.966 637.986C499.584 642.982 502.827 642.868 516.657 636.631C543.448 624.548 552.334 592.551 545.832 531.552C540.153 478.205 541.192 479.332 506.347 488.711ZM859.93 510.316C845.332 526.046 834.896 542.858 836.581 547.916C838.563 553.87 877.496 521.556 877.43 514.013C877.296 498.994 871.559 497.782 859.93 510.316ZM442.38 506.247C437.374 508.667 433.243 515.244 431.761 523.133C427.868 543.87 433.344 545.242 445.228 526.497C460.58 502.299 459.94 497.753 442.38 506.247ZM808.134 510.959C796.08 515.92 784.128 521.67 781.571 523.747C771.51 531.921 749.493 542.378 732.423 547.09C714.89 551.926 660.563 550.924 638.318 545.35C615.246 539.573 547.344 623.238 547.344 657.452C547.344 672.298 552.909 682.989 567.519 696.228C573.841 701.953 577.966 707.687 576.683 708.964C573.015 712.635 544.441 690.595 539.804 680.521L535.621 671.436L524.406 682.183C504.783 700.976 509.904 708.762 557.67 732.767C570.654 739.292 583.462 744.595 586.13 744.546C588.798 744.497 610.514 726.406 634.383 704.337C658.258 682.271 690.702 655.555 706.485 644.971C755.221 612.292 803.111 568.695 822.342 539.504C831.992 524.854 840.845 510.375 842.018 507.318C845.13 499.21 833.736 500.431 808.134 510.959ZM569.162 528.479C563.862 531.693 562.523 537.822 562.523 558.879C562.523 573.934 564.149 585.252 566.317 585.252C568.404 585.252 570.112 583.969 570.115 582.408C570.119 580.844 578.867 570.443 589.559 559.297C606.135 542.012 608.222 538.253 603.732 533.766C596.515 526.543 577.221 523.594 569.162 528.479ZM863.783 554.532C847.615 564.391 837.913 579.247 830.229 605.901C826.653 618.301 818.512 636.023 812.141 645.284C796.907 667.429 784.771 706.685 793.158 706.685C797.582 706.685 816.935 688.002 832.466 668.738C856.423 639.021 870.635 603.847 875.017 563.431C875.977 554.562 876.5 547.312 876.18 547.319C875.856 547.328 870.279 550.571 863.783 554.532ZM806.942 584.635C790.888 596.346 736.649 648.759 712.062 676.327C703.683 685.719 681.117 714.65 661.906 740.618C635.405 776.455 627.561 789.717 629.38 795.64C630.696 799.938 632.293 804.043 632.93 804.765C636.274 808.556 682.051 779.387 691.518 767.435C699.062 757.906 710.658 750.131 728.345 742.737C765.654 727.144 774.335 720.195 777.104 703.684C781.241 678.999 787.09 664.153 801.384 642.032C813.64 623.075 827.904 579.939 823.407 575.442C822.512 574.547 815.103 578.685 806.942 584.635ZM466.461 654.98C474.05 668.128 491.75 687.711 496.038 687.711C502.011 687.711 524.576 662.827 524.576 656.244C524.576 653.011 515.38 651.466 494.284 651.156C472.806 650.836 464.714 651.95 466.461 654.98ZM652.432 813.895L637.985 822.265L641.048 856.499C642.733 875.328 643.625 916.909 643.027 948.903C641.894 1010.15 641.842 1009.99 658.339 995.82C663.326 991.535 664.969 984.358 664.926 966.988C664.864 937.96 661.935 926.781 654.391 926.781C649.712 926.781 650.202 924.949 656.733 918C662.441 911.92 664.982 904.412 664.982 893.606C664.982 877.301 671.539 823.46 674.919 811.988C677.561 803.027 670.096 803.661 652.432 813.895ZM649.15 1024.5C641.685 1032.32 634.422 1043.64 633.011 1049.63L630.445 1060.54L648.663 1050.08C658.682 1044.32 668.179 1038.45 669.769 1037.04C673.107 1034.07 669.11 1010.27 665.276 1010.27C663.871 1010.27 656.619 1016.67 649.15 1024.5ZM653.598 1062.1C628.884 1076.58 624.09 1081.51 609.894 1106.93C593.905 1135.57 591.022 1143.08 596.002 1143.08C604.937 1143.08 650.404 1119.3 667.882 1105.48L686.656 1090.64L680.562 1071.38C677.212 1060.78 673.613 1052.1 672.571 1052.1C671.526 1052.09 662.99 1056.58 653.598 1062.1ZM675.242 1111.22C665.566 1118.75 645.493 1131.32 630.624 1139.14L603.598 1153.37L618.163 1155.77C649.539 1160.96 719.188 1156.67 772.293 1146.28C809.688 1138.98 805.44 1134.29 747.524 1118.92C727.176 1113.53 706.55 1106.5 701.681 1103.31C693.324 1097.84 691.848 1098.28 675.242 1111.22ZM547.772 1122.24C530.268 1127.18 514.303 1132.86 512.291 1134.87C509.949 1137.22 516.131 1140.71 529.524 1144.6C563.979 1154.62 568.587 1153.43 579.599 1131.7C590.741 1109.72 591.443 1109.92 547.772 1122.24Z" fill="#D4AF37"/>
<path d="M625.475 101.502C625.639 101.475 625.818 101.465 626.003 101.467C626.441 101.472 626.916 101.548 627.305 101.643C627.477 101.684 627.391 101.87 627.51 101.907C627.743 101.979 627.961 101.888 628.191 101.974C628.268 102.004 628.172 102.298 628.253 102.322C628.692 102.452 629.108 102.378 629.553 102.441C630.284 102.546 631.011 102.628 631.743 102.701C632.643 102.788 633.693 102.892 634.514 102.994C634.616 103.001 634.717 103.009 634.879 103.037C634.966 103.054 635.048 103.063 635.269 103.135C635.326 103.155 635.395 103.179 635.507 103.231C635.623 103.295 635.747 103.321 636.086 103.633C636.222 103.773 636.519 104.071 636.66 104.661C636.819 105.298 636.573 105.986 636.348 106.285C636.15 106.572 635.958 106.716 635.855 106.793C635.733 106.881 635.65 106.925 635.585 106.96C635.322 107.089 635.241 107.099 635.153 107.127C635.073 107.148 635.021 107.158 634.973 107.167C634.882 107.184 634.825 107.19 634.77 107.196C634.667 107.206 634.593 107.21 634.523 107.212C634.069 107.218 633.631 107.204 633.199 107.176C632.387 107.124 631.469 106.796 630.644 106.815C630.638 106.816 630.632 106.817 630.627 106.819C630.547 106.85 630.571 107.082 630.55 107.099C630.208 107.384 630.375 106.88 630.195 106.785C629.485 106.406 628.714 106.21 628.064 106.171C627.792 106.157 627.946 106.713 627.748 106.378C627.735 106.356 627.842 106.125 627.798 106.065C627.797 106.062 627.795 106.06 627.793 106.058C627.695 105.969 627.398 105.974 627.273 105.936C627.034 105.861 626.989 105.859 626.739 105.822C626.394 105.77 625.981 105.573 625.553 105.54C625.469 105.534 625.508 105.78 625.4 105.836C625.39 105.843 625.378 105.847 625.365 105.848C625.226 105.866 624.89 105.758 624.793 105.663C624.696 105.569 624.802 105.368 624.795 105.314C624.741 104.859 624.215 105.325 624.17 105.328C624.1 105.328 624.034 105.327 623.971 105.323C622.442 104.892 622.302 104.049 621.989 103.612C621.82 103.34 621.649 103.032 621.515 102.621C621.428 102.338 621.353 102.013 621.397 101.573C621.421 101.313 621.552 100.911 621.812 100.617C622.069 100.321 622.346 100.181 622.535 100.101C622.919 99.9495 623.12 99.9347 623.307 99.9036C623.665 99.8558 623.912 99.8463 624.156 99.8496C624.689 99.8621 625.121 99.9464 625.584 99.965C625.767 99.9713 625.949 99.9725 626.138 99.9621C626.213 99.9583 626.119 99.6297 626.211 99.6245C627.184 99.5704 628.131 99.6105 629.079 99.8424C629.174 99.866 629.048 100.155 629.143 100.196C629.722 100.439 630.625 101.027 630.997 99.7726C631.327 99.8209 631.72 99.8729 632.041 100.046C632.105 100.079 632.166 100.116 632.222 100.159C632.453 100.332 632.21 100.638 632.503 100.516C632.569 100.489 632.498 100.208 632.596 100.189C633.017 100.108 633.464 100.232 633.889 100.132C633.975 100.111 633.979 99.862 634.007 99.8201C634.251 99.4818 634.514 100.116 634.577 100.168C635.074 100.558 635.465 100.49 635.924 100.555C636.03 100.57 635.946 100.225 636.048 100.227C636.194 100.231 636.338 100.24 636.48 100.253C636.926 100.294 637.372 100.396 637.79 100.576C637.917 100.632 637.746 100.89 637.803 100.931C638.053 101.11 638.221 100.597 638.471 100.77C638.523 100.806 638.436 101.036 638.441 101.064C638.505 101.508 638.78 100.967 638.83 100.966C639.417 100.937 639.583 101.654 640.049 101.75C640.102 101.759 640.11 101.431 640.246 101.472C640.288 101.484 640.325 101.494 640.347 101.499C640.645 101.566 641.122 102.021 641.188 102.403C641.276 102.772 641.218 102.957 641.19 103.091C641.12 103.347 641.052 103.443 640.992 103.543C640.87 103.728 640.764 103.843 640.594 103.978C640.237 104.27 639.746 104.414 639.444 104.45C639.129 104.492 638.898 104.486 638.679 104.479C638.247 104.462 637.865 104.416 637.472 104.361C637.37 104.349 637.268 104.335 637.171 104.318C636.999 104.288 637.11 104.052 637.098 104.024C636.907 103.588 636.823 104.186 636.767 104.211C636.342 104.386 635.943 103.891 635.666 104.604C634.929 104.511 634.196 104.518 633.499 104.533C632.743 104.551 631.931 104.584 631.137 104.419C630.89 104.369 630.642 104.302 630.395 104.214C630.373 104.207 630.411 103.913 630.367 103.9C629.832 103.739 629.937 104.194 629.586 104.753C629.498 104.894 629.224 104.222 629.2 104.173C629.112 103.992 629.2 103.555 629.17 103.52C628.927 103.245 628.974 104.687 628.649 104.69C628.639 104.687 628.68 104.422 628.653 104.395C628.567 104.313 628.484 104.419 628.4 104.328C628.209 104.118 628.135 103.417 627.848 103.828C627.813 103.881 627.875 104.699 627.586 104.663C627.471 104.648 626.962 104.669 626.821 104.619C626.679 104.568 626.771 104.303 626.761 104.292C626.726 104.261 626.695 104.232 626.669 104.205C626.403 103.923 626.5 103.758 626.301 103.296C626.073 102.793 626.202 104.016 626.138 104.157C626.077 104.297 625.792 104.035 625.713 103.946C625.634 103.855 625.696 103.678 625.628 103.63C625.167 103.325 625.552 104.257 625.474 104.468C625.333 104.966 624.946 104.13 624.642 104.17C624.569 104.179 624.71 104.34 624.667 104.384C624.601 104.45 624.519 104.468 624.43 104.49C624.274 104.533 624.128 104.562 624.027 104.794C623.999 104.857 624.024 105.46 623.698 105.179C623.651 105.139 623.601 104.908 623.475 104.918C623.288 104.931 622.992 105.043 622.901 105.201C622.84 105.314 623.157 105.544 622.994 105.523C622.993 105.523 622.992 105.523 622.991 105.522C622.906 105.52 622.87 105.273 622.718 105.297C622.593 105.318 622.475 105.43 622.469 105.502C622.46 105.542 622.456 105.576 622.455 105.6C622.451 105.703 622.741 105.663 622.759 105.675C622.864 105.728 623.008 105.731 623.007 105.727C623.007 105.728 623.008 105.729 623.009 105.73C622.944 105.595 622.97 105.706 623.109 105.804C623.073 105.866 623.458 105.982 623.813 106.036C624.177 106.098 624.557 106.143 624.939 106.143C625.103 106.143 625.268 106.132 625.434 106.106C625.525 106.092 625.457 105.794 625.471 105.789C625.779 105.656 625.553 106.457 625.784 106.716C625.733 106.111 625.867 106.217 626.087 106.142C626.193 106.105 626.124 105.873 626.133 105.848C626.276 105.486 626.406 105.94 626.44 106.033C626.562 106.374 626.657 105.959 626.741 106.187C626.826 106.413 626.677 106.762 626.893 106.746C626.941 106.526 626.751 105.968 626.909 105.868C627.499 105.487 628.685 105.854 629.195 105.879C629.414 105.889 629.569 105.887 629.699 105.888C629.846 105.889 629.953 105.887 630.108 105.914C630.615 105.99 630.372 105.595 630.658 105.356C630.961 105.113 630.959 106.162 631.04 106.374C631.118 106.587 631.134 106.353 631.208 106.466C631.28 106.58 631.183 106.746 631.317 106.774C631.403 106.791 631.553 106.62 631.666 106.434C631.731 106.329 631.778 106.218 631.785 106.133C631.827 105.631 631.611 105.138 631.959 105.276C631.98 105.284 631.954 105.562 632.032 105.579C632.618 105.7 633.241 105.592 633.861 105.67C633.894 105.673 633.927 105.678 633.96 105.684C634.052 105.701 634 106.01 634.05 106.024C634.557 106.191 634.364 105.693 634.653 105.122C634.594 105.876 634.739 106.341 635.149 106.341C635.359 106.339 635.367 106.111 635.429 105.895C635.442 105.85 635.464 105.796 635.436 105.764C635.358 105.864 635.535 105.624 635.396 105.584C635.2 105.463 635.02 105.317 634.908 105.172C634.777 105.035 634.962 104.636 635.292 104.542C635.372 104.516 635.469 104.506 635.568 104.519C635.596 104.524 635.571 104.812 635.661 104.812C636.17 104.847 636.178 104.333 636.673 104.27C636.931 104.237 637.415 104.433 637.619 104.556C637.652 104.566 637.682 104.576 637.702 104.585C637.693 104.588 637.766 104.585 637.651 104.595C637.636 104.597 637.619 104.598 637.571 104.607C637.546 104.613 637.515 104.618 637.446 104.643C637.381 104.688 637.246 104.649 636.997 105.038C636.874 105.236 636.878 105.624 636.998 105.816C637.11 106.016 637.219 106.081 637.286 106.128C637.422 106.211 637.47 106.215 637.51 106.229C637.588 106.249 637.591 106.246 637.604 106.249C637.646 106.255 637.656 106.255 637.667 106.256C637.685 106.257 637.688 106.256 637.691 106.256C637.694 106.255 637.692 106.253 637.69 106.252C637.681 106.248 637.669 106.244 637.655 106.239C637.602 106.223 637.543 106.21 637.495 106.202C637.517 105.353 637.152 105.542 636.997 106.125C636.749 106.097 636.481 106.126 636.241 106.042C636.158 106.013 636.217 105.768 636.207 105.741C636.054 105.322 635.937 105.89 635.882 105.911C635.297 106.119 634.831 105.679 634.267 106.089C634.249 106.102 634.212 106.556 634.11 106.377C634.096 106.352 634.081 106.313 634.064 106.26C634.06 106.245 634.103 106.173 634.116 106.101C634.121 106.077 634.122 106.053 634.118 106.031C634.108 105.985 634.074 105.948 633.984 105.939C633.728 105.913 633.241 105.592 632.876 105.863C632.789 105.928 632.566 106.405 632.39 106.03C632.367 105.979 632.393 105.81 632.359 105.716C632.25 105.416 632.188 106.012 632.059 105.505C631.931 104.998 631.66 104.618 631.294 104.967C631.283 104.977 631.196 105.45 631.081 105.442C630.897 105.43 630.637 105.331 630.446 105.334C630.354 105.336 630.413 105.629 630.397 105.635C629.78 105.799 629.342 105.538 628.681 105.424C628.56 105.402 628.21 105.802 627.977 105.484C627.768 105.203 627.908 104.204 627.657 104.016C627.598 103.973 627.524 103.973 627.415 104.036C627.198 104.169 626.82 105.989 626.443 105.016C625.784 105.158 625.284 104.814 624.619 104.718C624.428 104.702 624.234 104.714 624.035 104.771C623.996 104.782 623.827 105.277 623.739 105.261C623.608 105.236 623.562 104.991 623.471 104.964C623.228 104.887 622.99 104.922 622.732 104.878C622.609 104.86 622.486 104.856 622.359 104.828C622.225 104.802 622.295 104.56 622.122 104.534C621.95 104.509 621.82 104.831 621.597 104.657C621.533 104.606 621.478 104.475 621.431 104.326C621.344 104.085 621.247 103.801 621.103 103.739C621.028 104.389 620.87 104.359 620.572 104.507C620.515 104.536 620.554 104.768 620.526 104.793C620.413 104.901 620.332 104.705 620.223 104.825C620.196 104.853 620.178 105.076 620.155 105.112C619.963 105.427 619.726 104.905 619.685 104.814C619.528 104.469 619.421 104.753 619.291 104.611C619.161 104.47 619.382 104.323 619.226 104.232C619.037 104.121 618.81 104.075 618.589 104.046C618.453 104.028 618.309 104.002 618.179 103.967C618.054 103.933 618.066 104.243 618.047 104.245C617.749 104.248 617.573 103.858 617.242 104.376C617.523 102.853 617.033 104.466 616.741 104.048C616.718 104.014 616.904 103.31 617.054 103.247C617.203 103.184 617.31 103.457 617.52 103.35C617.571 103.325 617.986 102.742 618.023 102.71C618.325 102.465 618.05 103.514 618.049 103.576C618.017 104.237 618.454 103.584 618.498 103.537C618.556 103.499 618.604 103.474 618.644 103.456C618.896 103.396 619.116 103.483 619.35 103.369C619.542 103.276 619.613 102.568 619.757 102.601C620.239 102.709 620.327 103.71 620.873 102.894C620.992 102.721 620.959 101.936 621.281 102.582C621.298 102.614 621.436 102.977 621.598 102.98C621.622 102.978 621.65 102.948 621.679 102.872C621.695 102.829 621.716 102.604 621.733 102.586C621.848 102.473 621.922 102.657 622.125 102.581C622.327 102.509 622.668 102.386 623.136 102.574C623.252 102.622 623.375 102.748 623.475 102.894C623.389 103.01 623.358 103.176 623.352 103.236C623.336 103.539 623.557 103.082 623.586 103.448C623.631 103.819 623.368 104.341 623.605 104.605C623.682 104.022 623.771 103.424 623.85 102.838C624.131 102.88 624.476 102.968 624.845 103.068C625.352 103.192 625.476 103.272 625.717 103.295C625.777 103.301 625.766 102.979 625.828 102.976C626.086 102.964 626.308 103.212 626.621 103.142C626.862 103.087 627.142 102.762 627.397 102.683C627.454 102.947 627.548 103.074 627.663 103.133C627.85 103.226 628.079 103.157 628.265 103.195C628.374 103.217 628.365 103.397 628.441 103.456C628.73 103.673 628.595 103.078 628.675 102.984C629.016 102.585 629.044 103.932 629.447 103.899C629.468 103.897 629.729 103.179 629.765 103.135C629.994 102.843 629.803 103.385 629.946 103.438C630.208 103.534 630.39 103.706 630.697 103.496C630.786 103.433 631.002 102.986 631.176 103.332C631.199 103.377 631.186 103.615 631.204 103.629C631.538 103.861 631.547 103.115 631.74 102.863C631.932 102.611 632.227 103.126 632.286 103.275C632.443 103.659 632.165 103.439 632.156 103.476C632.055 103.924 632.271 103.848 632.435 103.886C632.456 104.617 632.686 104.575 632.606 103.923C632.597 103.852 632.468 103.92 632.435 103.886C632.583 103.17 632.839 103.079 633.115 103.752C633.245 104.067 633.116 104.432 633.517 104.302C633.699 104.244 633.636 103.74 633.799 103.605C633.915 103.51 634.043 103.49 634.172 103.506C634.45 103.543 634.749 103.757 635.006 103.71C635.141 103.686 635.015 103.408 635.108 103.382C635.353 103.311 635.565 103.522 635.812 103.42C635.835 103.41 635.785 103.121 635.861 103.119C636.442 103.095 636.939 103.286 637.555 103.301C637.602 103.303 637.657 103.3 637.722 103.295C637.742 103.294 637.754 103.292 637.788 103.291C637.799 103.291 637.794 103.29 637.824 103.291C637.841 103.292 637.856 103.292 637.909 103.296C637.939 103.299 637.967 103.299 638.08 103.316C638.108 103.323 638.135 103.318 638.355 103.38C638.472 103.426 638.613 103.429 639.03 103.725C639.227 103.884 639.582 104.164 639.789 104.833C640.016 105.508 639.737 106.375 639.438 106.717C638.827 107.419 638.585 107.359 638.428 107.447C638.274 107.499 638.201 107.511 638.141 107.524C638.028 107.545 637.985 107.548 637.948 107.552C637.729 107.569 637.817 107.56 637.787 107.563C637.778 107.564 637.771 107.564 637.765 107.564C637.753 107.565 637.743 107.566 637.733 107.566C637.688 107.571 637.658 107.576 637.619 107.581C637.364 107.588 637.363 107.594 637.271 107.602C637.198 107.609 637.132 107.617 637.068 107.622C636.942 107.634 636.832 107.64 636.748 107.626C636.591 107.6 636.43 107.529 636.301 107.46C636.189 107.382 636.022 107.352 636.245 107.244C636.333 107.201 636.469 107.154 636.706 106.96C636.942 106.787 637.282 106.276 637.316 105.843C637.362 105.419 637.278 105.235 637.278 105.201C637.275 105.186 637.283 105.204 637.306 105.283C637.325 105.367 637.379 105.499 637.377 105.852C637.377 106.11 637.279 106.568 637.021 106.918C636.765 107.274 636.483 107.444 636.289 107.543C635.904 107.722 635.775 107.722 635.644 107.754C635.299 107.894 635.402 108.112 635.241 108.285C634.897 108.672 634.53 107.985 634.481 107.882C634.476 107.878 634.703 107.809 634.58 107.662C634.507 107.353 634.483 107.881 634.481 107.882C634.456 107.824 634.146 107.781 634.158 107.8C634.128 107.807 634.104 107.817 634.091 107.828C634.047 107.865 634.114 108.131 634.091 108.145C633.565 108.467 632.878 108.691 632.019 108.656C632.004 108.652 631.992 108.346 631.958 108.34C631.922 108.334 631.888 108.33 631.854 108.329C631.572 108.298 631.436 108.66 631.178 108.91C630.898 109.181 630.498 109.164 630.181 108.663C630.066 108.695 629.924 108.692 629.779 108.665C629.606 108.609 629.414 108.485 629.282 108.398C629.081 108.267 629.084 108.863 629.068 108.875C628.555 109.28 628.216 108.961 627.629 108.944C627.35 108.935 626.795 109.053 626.484 109.132C626.239 109.195 626.083 109.062 625.854 109.158C625.823 109.171 625.863 109.435 625.854 109.446C625.6 109.77 625.708 109.119 625.652 109.005C625.445 108.589 625.328 108.368 624.993 108.567C624.979 108.575 624.96 108.612 624.938 108.667C624.845 108.919 624.693 109.555 624.588 109.6C624.421 109.67 624.483 109.336 624.306 109.417C624.29 109.424 624.296 109.63 624.183 109.621C623.932 109.603 623.675 109.57 623.302 109.523C622.965 109.462 622.261 109.457 621.333 108.954C621.282 108.925 621.228 108.895 621.171 108.861C621.024 108.771 621.047 109.175 620.811 109.031C620.414 108.761 619.721 108.318 619.252 107.135C618.929 106.301 618.973 105.3 619.183 104.68C619.36 104.016 619.795 103.416 620.107 103.136C620.442 102.842 620.409 103.209 620.52 103.193C620.794 103.177 620.902 103.076 620.928 102.961C621.041 102.752 621.053 102.512 621.082 102.484C621.856 101.741 622.435 101.739 622.74 101.612C622.986 101.488 623.487 101.215 623.94 100.991C624.012 100.942 624.551 100.14 624.903 100.647C624.933 100.678 625.253 101.195 625.401 100.792C625.412 100.767 625.233 100.495 625.489 100.496C625.74 100.498 626.112 100.28 626.425 100.589C626.463 100.627 626.522 100.735 626.596 100.825C626.696 100.967 626.827 101.067 626.969 100.792C626.983 100.76 627.342 99.7438 627.48 100.44C627.502 100.555 627.488 101.293 627.765 100.912C627.818 100.838 627.72 100.674 627.86 100.57C628.075 100.41 628.363 100.606 628.625 100.275C628.671 100.217 628.864 99.7142 629.023 100.094C629.048 100.153 629.003 100.4 629.086 100.427C629.481 100.557 629.891 100.39 630.288 100.558C630.428 100.617 630.361 101.016 630.506 101.122C630.653 101.228 630.949 101.328 631.095 101.144C631.097 101.142 631.099 101.14 631.1 101.138C631.24 100.946 631.075 100.327 631.293 100.274C631.955 100.111 632.623 100.217 633.395 100.314C633.719 100.353 634.017 100.393 634.313 100.406C634.464 100.413 634.337 100.187 634.559 100.181C635.335 100.159 636.639 99.9545 637.186 100.322C637.223 100.337 637.259 100.354 637.292 100.371C637.939 100.719 637.179 101.06 637.655 101.19C637.882 101.252 638.087 100.505 638.138 100.479C638.386 100.351 638.588 100.367 638.715 100.398C638.834 100.436 638.909 100.454 638.629 100.484C638.504 100.507 638.527 100.178 638.397 100.214C638.24 100.259 638.058 100.367 637.935 100.476C637.666 100.696 637.534 100.847 637.339 101.15C637.244 101.319 637.123 101.474 636.978 102.008C636.924 102.287 636.791 102.692 636.997 103.532C637.153 104.406 638.253 105.44 638.916 105.588C638.755 105.519 638.664 105.475 638.584 105.451C638.468 105.417 638.405 105.638 638.332 105.59C638.173 105.485 638.099 105.357 638.007 105.104C637.998 105.08 638.181 104.839 638.061 104.791C637.871 104.717 637.642 104.443 637.331 104.605C637.238 104.654 637.144 105.168 637.037 104.783C637.014 104.703 637.162 104.09 636.869 104.594C636.816 104.676 636.382 105.354 636.262 104.868C636.233 104.758 636.183 104.363 636.093 104.291C636.072 104.278 636.051 104.275 636.029 104.285C636.009 104.295 636.058 104.582 635.939 104.598C635.518 104.647 635.106 104.561 634.727 104.597C634.626 104.607 634.732 104.915 634.583 104.921C634.174 104.938 633.75 104.808 633.423 104.684C633.302 104.637 633.412 104.407 633.405 104.38C633.298 103.941 633.157 104.506 633.106 104.535C632.791 104.71 632.579 104.426 632.29 104.485C632.21 104.5 632.254 104.776 632.237 104.8C632.068 105.032 632.208 104.545 632.107 104.487C632.044 104.451 631.981 104.423 631.913 104.403C631.66 104.33 631.388 104.342 631.135 104.364C631.016 104.375 631.143 104.695 631.036 104.701C630.406 104.742 629.748 104.701 629.134 104.52C629.019 104.485 629.094 104.241 629.071 104.185C628.907 103.792 628.657 104.324 628.601 104.374C628.344 104.604 628.247 104.387 628.021 104.427C627.3 104.558 626.452 104.542 625.735 104.512C625.277 104.5 624.839 104.468 624.471 104.439C624.153 104.413 623.845 104.382 623.728 104.356C623.685 104.335 623.653 104.353 623.99 104.242C624.157 104.174 624.498 104.065 624.939 103.639C625.393 103.215 625.655 102.493 625.676 102.13C625.713 101.608 625.597 101.39 625.531 101.24C625.457 101.097 625.404 101.054 625.386 101.043C625.54 101.28 625.715 101.486 625.692 101.435C625.678 101.418 625.917 101.195 625.898 101.168C625.842 101.093 625.577 100.883 625.197 100.781C625.757 100.931 626.069 101.048 626.496 101.143C626.628 101.172 626.795 101.193 626.989 101.198C627.05 101.2 627.01 100.882 627.109 100.875C627.311 100.858 627.599 100.911 627.867 101.045C627.998 101.111 627.778 101.348 627.912 101.409C628.128 101.508 628.382 101.575 628.713 101.639C628.817 101.659 628.918 101.672 629.017 101.678C629.151 101.684 629.022 101.334 629.191 101.367C629.994 101.52 630.637 101.62 631.223 101.818C631.486 101.902 631.766 102.009 632.045 102.149C632.111 102.182 632.127 102.826 632.285 102.713C632.307 102.536 632.319 102.327 632.335 102.137C632.987 102.13 633.625 102.159 634.186 102.161C634.187 102.164 634.181 102.166 634.132 102.174C634.105 102.179 634.072 102.184 633.99 102.201C633.948 102.21 633.896 102.221 633.805 102.247C633.704 102.28 633.609 102.29 633.255 102.465C633.165 102.512 633.056 102.57 632.884 102.693C632.797 102.758 632.728 102.809 632.598 102.928C632.472 103.047 632.331 103.197 632.19 103.397C631.88 103.8 631.496 104.769 631.706 105.705C631.893 106.585 632.334 107.033 632.527 107.234C632.776 107.477 632.928 107.57 633.057 107.653C633.196 107.738 633.269 107.773 633.35 107.812C633.505 107.883 633.592 107.913 633.665 107.937C633.94 108.023 634.008 108.024 634.085 108.037C634.219 108.055 634.264 108.053 634.309 108.053C633.473 107.967 632.928 107.885 632.207 107.86C632.141 107.858 632.25 108.199 632.122 108.197C631.981 108.194 631.839 108.195 631.696 108.196C631.085 108.202 630.47 108.209 629.83 107.934C629.751 107.901 629.793 107.303 629.561 107.393C629.52 107.409 629.17 107.488 629.079 107.618C629.067 107.638 629.13 107.917 629.018 107.925C628.362 107.966 627.676 107.902 627.021 107.731C626.915 107.703 627.027 107.406 626.953 107.383C626.644 107.292 626.319 107.329 626.003 107.324C625.769 107.321 625.542 107.296 625.326 107.182C624.984 107 625.111 106.486 624.93 105.981C624.904 105.909 624.692 105.898 624.681 105.604C624.653 104.864 624.755 104.054 624.714 103.266C624.704 103.096 624.422 103.279 624.589 102.868C624.6 102.841 624.806 102.704 624.857 102.565C624.893 102.469 624.829 102.17 624.9 102.047C624.972 101.923 625.051 102.174 625.171 102.029C625.289 101.883 625.239 101.543 625.475 101.502ZM628.356 107.819C628.152 107.545 628.188 108.592 628.375 108.329C628.383 108.315 628.366 107.832 628.356 107.819ZM625.028 103.995C625.194 104.5 625.452 103.858 625.374 103.479C625.299 103.101 624.968 103.84 625.028 103.995ZM622.377 103.905C622.658 104.307 623.048 102.868 622.496 103.093C622.466 103.107 622.359 103.882 622.377 103.905ZM625.772 105.837C625.77 105.823 625.618 105.809 625.613 105.823C625.532 106.155 625.837 106.182 625.772 105.837ZM619.808 104.057C619.882 104.264 620.158 104.053 620.066 103.796C619.991 103.588 619.715 103.8 619.808 104.057ZM624.414 103.713C624.424 103.725 624.533 103.69 624.496 103.611C624.375 103.352 624.249 103.501 624.414 103.713ZM615.694 103.218C616.234 103.428 616.403 104.709 615.714 104.409C615.593 104.354 616.082 104.095 615.946 103.949C615.805 103.794 615.621 103.967 615.431 104.029C615.426 104.028 615.411 104.022 615.406 104.021C615.249 104.051 615.114 104.022 615.081 103.813C615.066 103.727 615.641 103.301 615.702 103.228L615.683 103.222C615.689 103.217 615.693 103.215 615.695 103.216C615.695 103.217 615.694 103.217 615.694 103.218ZM628.172 106.57C628.167 106.557 628.016 106.553 628.013 106.567C627.952 106.904 628.257 106.912 628.172 106.57ZM630.799 103.925C630.806 103.949 631.038 103.969 631.132 103.961C631.155 103.96 631.169 103.956 631.171 103.951C631.227 103.779 631.195 103.656 631.128 103.586C630.986 103.436 630.688 103.535 630.799 103.925ZM637.49 106.179C637.318 106.511 637.124 106.547 636.998 106.126C637.163 106.15 637.323 106.156 637.49 106.179Z" fill="#D4AF37"/>
<path d="M624.157 101.178C624.548 101.088 625.151 101.118 625.423 101.193C625.524 101.201 625.622 101.211 625.712 101.224C625.899 101.249 625.822 101.442 625.949 101.469C626.195 101.521 626.406 101.414 626.641 101.484C626.719 101.509 626.645 101.808 626.725 101.827C627.165 101.928 627.561 101.83 627.991 101.869C628.574 101.922 629.147 101.963 629.714 101.992C631.137 102.06 632.458 102.183 633.581 102.214C633.663 102.216 633.746 102.215 633.771 102.219C633.776 102.223 633.794 102.217 633.658 102.254C633.615 102.267 633.57 102.279 633.462 102.324C633.357 102.387 633.206 102.371 632.762 102.828C632.638 102.972 632.512 103.144 632.405 103.417C632.293 103.699 632.249 104.065 632.289 104.357C632.383 104.986 632.619 105.232 632.755 105.404C633.013 105.683 633.12 105.72 633.192 105.769C633.388 105.879 633.392 105.862 633.412 105.869C633.424 105.87 633.413 105.861 633.396 105.851C633.362 105.83 633.301 105.8 633.235 105.768C632.761 105.54 632.223 105.268 631.703 105.261C631.626 105.261 631.622 105.523 631.604 105.541C631.324 105.819 631.493 105.321 631.358 105.227C630.963 104.953 630.493 104.821 630.052 104.799C629.82 104.783 629.619 104.769 629.445 104.768C629.164 104.765 629.352 105.316 629.13 104.987C629.115 104.965 629.226 104.706 629.16 104.665C629.008 104.573 628.697 104.571 628.579 104.53C628.348 104.449 628.308 104.446 628.084 104.408C627.782 104.355 627.444 104.172 627.106 104.177C627.099 104.177 627.092 104.177 627.086 104.178C627.013 104.181 627.067 104.473 626.947 104.504C626.826 104.534 626.528 104.468 626.435 104.388C626.343 104.308 626.416 104.096 626.406 104.043C626.316 103.599 625.883 104.136 625.836 104.144C624.979 104.276 624.318 103.845 623.544 103.74C622.956 103.661 622.311 103.686 621.754 103.595C621.122 103.49 620.596 103.279 619.987 103.204C619.954 103.2 619.922 103.197 619.89 103.193C619.822 103.187 619.856 103.525 619.774 103.517C619.462 103.487 619.16 103.45 618.847 103.395C618.69 103.368 618.535 103.337 618.366 103.298C618.28 103.278 618.193 103.256 618.078 103.225C618.017 103.208 617.955 103.192 617.837 103.154C617.778 103.134 617.7 103.109 617.574 103.052C617.457 103.003 617.228 102.859 617.139 102.776C616.644 102.351 616.43 101.751 616.446 101.212C616.493 100.461 616.795 100.12 616.978 99.8936C617.079 99.7829 617.217 100.096 617.327 100.007C617.423 99.9295 617.525 99.8673 617.622 99.8134C618.668 99.0647 619.36 99.4849 619.554 98.3138C620.008 98.2999 620.496 98.3192 620.853 98.5537C621.084 98.7051 620.885 99.0318 621.148 98.8835C621.206 98.8506 621.114 98.5781 621.204 98.5497C621.584 98.4303 621.997 98.5051 622.363 98.3486C622.436 98.3162 622.407 98.0693 622.426 98.0239C622.463 97.9421 622.508 97.9075 622.556 97.9035C622.714 97.8902 622.923 98.2504 622.977 98.2822C623.505 98.5861 623.867 98.4542 624.334 98.456C624.443 98.4567 624.311 98.1253 624.415 98.1141C624.563 98.0992 624.713 98.0904 624.864 98.0884C625.26 98.0832 625.655 98.1257 626.037 98.2311C626.153 98.2642 626.048 98.5482 626.103 98.5785C626.349 98.7089 626.402 98.1732 626.638 98.2881C626.687 98.3116 626.66 98.5544 626.669 98.581C626.813 98.999 626.934 98.4057 626.97 98.3925C627.43 98.2121 627.726 98.8302 628.171 98.7412C628.224 98.7299 628.103 98.4231 628.252 98.4102C628.968 98.3468 629.714 98.3713 630.437 98.4758C630.717 98.5163 631.006 98.5697 631.251 98.6297C631.36 98.6621 631.299 98.8962 631.307 98.9243C631.324 98.979 631.341 99.0172 631.344 99.0432C631.333 99.0599 631.38 99.0543 631.258 99.0921C631.227 99.1056 631.186 99.1089 631.076 99.1909C631.069 99.2035 630.965 99.2518 630.889 99.4603C630.807 99.6727 630.919 99.9402 631.005 100.018C631.197 100.196 631.178 100.139 631.205 100.161C631.28 100.19 631.303 100.189 631.313 100.191C631.332 100.193 631.339 100.192 631.342 100.191C631.35 100.186 631.312 100.216 631.29 100.264C631.242 100.357 631.201 100.51 631.178 100.521C631.102 100.552 631.023 100.555 630.947 100.546C630.657 100.514 630.38 100.315 630.153 100.871C629.411 100.749 628.662 100.731 627.917 100.675C626.97 100.604 626.028 100.494 625.124 100.043C625.104 100.034 625.172 99.7459 625.13 99.7282C624.638 99.5122 624.694 99.9759 624.291 100.492C624.185 100.621 624.007 99.923 623.988 99.8707C623.926 99.6801 624.065 99.2575 624.041 99.2192C623.846 98.9161 623.714 100.356 623.373 100.308C623.363 100.304 623.445 100.048 623.421 100.018C623.343 99.9218 623.251 100.016 623.141 99.9003C623.112 99.873 623.094 99.845 623.027 99.795C623.011 99.7817 622.995 99.7731 622.91 99.7243C622.868 99.6977 622.813 99.6695 622.716 99.5735C622.691 99.5479 622.667 99.5217 622.635 99.477C622.572 99.3917 622.492 99.2452 622.484 99.046C622.472 98.8475 622.557 98.6455 622.646 98.5365C622.736 98.4232 622.817 98.3729 622.876 98.3389C622.936 98.3059 622.979 98.2908 623.013 98.2797C623.03 98.2749 623.035 98.2745 623.045 98.2724C623.063 98.2691 623.078 98.2672 623.091 98.266C623.118 98.2637 623.139 98.2642 623.156 98.2655C623.189 98.2684 623.217 98.2743 623.228 98.2816C623.318 98.3419 623.337 98.4168 623.377 98.4849C623.456 98.7022 623.544 98.8715 623.716 98.6238C623.752 98.5713 623.712 97.7523 623.986 97.7951C624.095 97.813 624.581 97.8055 624.717 97.8603C624.853 97.9151 624.756 98.1776 624.765 98.1891C625.128 98.5426 624.987 98.6853 625.164 99.204C625.341 99.7208 625.307 98.4934 625.384 98.3575C625.462 98.222 625.727 98.5136 625.792 98.6147C625.856 98.7158 625.772 98.8821 625.829 98.9396C626.214 99.3164 626.012 98.3338 626.148 98.1418C626.187 98.0897 626.223 98.0557 626.262 98.0369C626.281 98.0274 626.302 98.0217 626.33 98.02C626.356 98.0203 626.331 98.0162 626.421 98.0249C626.433 98.0263 626.448 98.0281 626.472 98.032C626.485 98.034 626.499 98.0366 626.518 98.0406C626.528 98.0426 626.538 98.045 626.551 98.0481C626.582 98.0573 626.517 98.0344 626.661 98.0811C626.723 98.1084 626.807 98.1233 626.995 98.2802C627.084 98.3614 627.218 98.501 627.297 98.754C627.381 99.0069 627.332 99.3419 627.22 99.5346C626.987 99.9202 626.818 99.9382 626.734 99.9914C626.644 100.031 626.599 100.041 626.563 100.051C626.423 100.083 626.453 100.072 626.44 100.075C626.427 100.076 626.417 100.077 626.409 100.078C626.376 100.081 626.36 100.081 626.345 100.081C626.051 100.05 625.901 99.4919 625.676 99.4254C625.602 99.4018 625.665 99.6086 625.597 99.6284C625.331 99.7039 625.172 99.4207 624.871 99.6822C624.822 99.7248 624.58 100.273 624.421 99.8718C624.398 99.814 624.461 99.5871 624.348 99.5367C624.179 99.4611 623.875 99.4126 623.694 99.489C623.561 99.5456 623.715 99.9186 623.547 99.8032C623.472 99.7516 623.609 99.5326 623.469 99.454C623.328 99.3754 622.971 99.3865 622.835 99.3947C622.7 99.4031 622.775 99.6861 622.764 99.7053C622.698 99.8149 622.44 99.953 622.416 99.9529C622.238 99.9593 622.063 99.9537 621.89 99.9406C621.668 99.924 621.451 99.895 621.238 99.8636C621.131 99.8479 621.027 99.8315 620.926 99.8166C620.878 99.8091 620.825 99.8024 620.8 99.7954C620.797 99.7933 620.789 99.7925 620.814 99.7862C620.844 99.7711 620.79 99.8171 621.022 99.7037C621.072 99.6726 621.145 99.628 621.229 99.512C621.26 99.4721 621.342 99.3331 621.352 99.1741C621.366 99.0147 621.314 98.8629 621.258 98.7719C621.091 98.53 621.004 98.5381 620.98 98.5152C620.911 98.483 620.895 98.4821 620.878 98.4771C620.803 98.4625 620.854 98.4804 620.868 98.4859C621.191 98.6017 621.635 98.6725 622.021 98.6528C622.028 98.6525 622.034 98.6521 622.038 98.6518C622.041 98.6516 622.043 98.6514 622.047 98.6513C622.049 98.6512 622.05 98.6511 622.051 98.651C622.052 98.6509 622.052 98.6509 622.052 98.6508C622.052 98.6508 622.053 98.6508 622.054 98.6508C622.054 98.6508 622.054 98.6508 622.054 98.6508C622.054 98.6508 622.054 98.6508 622.054 98.6508C622.054 98.6508 622.054 98.6508 622.054 98.6508C622.054 98.6508 622.054 98.6508 622.054 98.6508C622.054 98.6508 622.054 98.6508 622.054 98.6508C622.054 98.6508 622.054 98.6508 622.054 98.6508C622.054 98.6508 622.054 98.6508 622.054 98.6508C622.054 98.6508 622.054 98.6508 622.054 98.6508C622.054 98.0188 622.054 100.42 622.054 99.7883C622.054 99.7883 622.054 99.7883 622.054 99.7883C622.054 99.7883 622.054 99.7883 622.054 99.7883C622.054 99.7883 622.054 99.7883 622.054 99.7883C622.054 99.7883 622.054 99.7883 622.054 99.7883C622.054 99.7883 622.054 99.7883 622.054 99.7883C622.054 99.7883 622.054 99.7883 622.054 99.7883C622.054 99.7883 622.054 99.7883 622.054 99.7883C622.054 99.7883 622.054 99.7883 622.054 99.7883C622.054 99.7883 622.054 99.7883 622.054 99.7883C622.053 99.7883 622.054 99.7884 622.053 99.7884C622.053 99.7884 622.053 99.7884 622.053 99.7884C622.042 99.7891 622.03 99.7899 622.02 99.7908C621.997 99.7925 621.975 99.7944 621.954 99.7966C621.908 99.8009 621.865 99.8062 621.819 99.8124C621.731 99.8244 621.79 100.123 621.776 100.128C621.472 100.253 621.713 99.4589 621.5 99.1929C621.53 99.7993 621.405 99.6895 621.191 99.756C621.088 99.7886 621.144 100.023 621.134 100.047C620.982 100.404 620.875 99.9434 620.848 99.8492C620.746 99.5025 620.636 99.9121 620.567 99.6804C620.498 99.4505 620.657 99.1095 620.451 99.1139C620.393 99.331 620.546 99.8982 620.39 99.9902C620.353 100.013 620.308 100.033 620.267 100.049C620.269 100.053 620.276 100.057 620.308 100.058C620.326 100.057 620.352 100.056 620.408 100.045C620.437 100.039 620.475 100.031 620.535 100.008C620.565 99.9963 620.601 99.9808 620.646 99.955C620.623 99.9587 620.929 99.8475 621.044 99.4307C621.099 99.2273 621.057 99.0001 620.99 98.8656C620.923 98.7264 620.851 98.6532 620.797 98.6029C620.693 98.5087 620.619 98.4783 620.605 98.4699C620.582 98.4577 620.564 98.4496 620.549 98.4431C620.519 98.4304 620.502 98.424 620.488 98.419C620.418 98.393 620.452 98.3979 620.456 98.3927C620.48 98.3872 620.516 98.3854 620.554 98.3853C620.629 98.3853 620.716 98.3936 620.803 98.4072C620.977 98.4347 621.161 98.485 621.341 98.5421C621.7 98.6562 622.039 98.7964 622.253 98.8357C622.711 98.919 622.861 98.8866 623.12 98.9764C623.308 99.0406 623.395 99.0066 623.444 98.9336C623.483 98.879 623.505 98.8018 623.508 98.7243C623.499 98.7061 623.525 98.682 623.446 98.6729C623.414 98.6751 623.419 98.6611 623.29 98.6978C623.248 98.713 623.192 98.7322 623.102 98.79C623.017 98.8491 622.864 98.9527 622.761 99.2214C622.649 99.4921 622.741 99.8563 622.854 100.004C622.992 100.19 622.986 100.156 623.03 100.201C623.169 100.31 623.227 100.325 623.271 100.347C623.42 100.405 623.368 100.394 623.394 100.41C623.416 100.451 623.378 100.479 623.341 100.504C623.052 100.669 623.274 99.6508 623.255 99.4252C623.232 99.1996 623.164 99.4236 623.12 99.297C623.076 99.1706 623.207 99.0298 623.082 98.9731C622.957 98.9164 622.578 99.2834 622.515 99.5119C622.38 99.9959 622.497 100.524 622.173 100.316C622.155 100.304 622.24 100.038 622.167 100.004C622.049 99.9514 621.934 99.9078 621.8 99.8644C621.78 99.8614 621.758 99.8612 621.694 99.841C621.677 99.8355 621.658 99.8282 621.632 99.8158C621.602 99.8001 621.537 99.7704 621.462 99.6828C621.386 99.6017 621.316 99.4025 621.358 99.2478C621.396 99.0938 621.471 99.0231 621.515 98.9821C621.563 98.9411 621.55 98.9538 621.566 98.9419C621.586 98.9279 621.603 98.9186 621.617 98.9112C621.722 98.8615 621.717 98.8738 621.733 98.8675C621.759 98.8617 621.765 98.8614 621.774 98.8602C621.792 98.8581 621.797 98.8584 621.806 98.858C621.821 98.8578 621.832 98.8584 621.843 98.8589C621.863 98.8603 621.883 98.862 621.9 98.864C621.935 98.8679 621.968 98.8721 622 98.8764C622.064 98.8849 622.126 98.8935 622.188 98.902C622.313 98.9189 622.433 98.9355 622.555 98.9535C622.797 98.9898 623.037 99.0326 623.272 99.1038C623.354 99.1288 623.284 99.4325 623.332 99.4505C623.338 99.4526 623.343 99.4547 623.349 99.4567C623.82 99.6281 623.646 99.1242 623.91 98.5615C623.854 99.317 624.006 99.7777 624.377 99.7807C624.601 99.7828 624.561 99.4532 624.705 99.2204C624.748 99.1502 624.907 99.3763 624.936 99.2212C625.03 98.7141 624.879 98.1467 625.265 98.3723C625.282 98.3831 625.228 98.6606 625.286 98.6774C625.663 98.7874 625.709 98.2571 626.117 98.1938C626.438 98.1441 627.005 98.4702 627.37 98.526C627.355 99.3747 627.698 99.1834 627.846 98.5999C628.04 98.6219 628.249 98.6059 628.444 98.6472C628.487 98.6561 628.529 98.6677 628.569 98.6829C628.647 98.7122 628.59 98.9568 628.599 98.9836C628.743 99.4035 628.858 98.8373 628.913 98.8167C629.484 98.6181 629.911 99.0732 630.487 98.703C630.506 98.6896 630.597 98.1055 630.701 98.5491C630.706 98.5795 630.501 98.8276 630.752 98.8751C631.006 98.9217 631.437 99.3014 631.805 99.0753C631.877 99.0316 632.054 98.7336 632.173 98.814C632.204 98.8342 632.235 98.8779 632.26 98.9547C632.277 99.0072 632.237 99.1735 632.261 99.2701C632.338 99.5781 632.444 98.989 632.524 99.5035C632.605 100.018 632.843 100.417 633.214 100.088C633.226 100.078 633.335 99.6116 633.443 99.6246C633.615 99.6459 633.857 99.7546 634.039 99.7564C634.126 99.7571 634.078 99.4624 634.093 99.4574C634.222 99.424 634.343 99.4104 634.456 99.4098C634.564 99.409 634.657 99.4194 634.729 99.4319C634.732 99.4327 634.734 99.4336 634.731 99.4352C634.709 99.4478 634.785 99.4016 634.619 99.4859C634.579 99.5069 634.453 99.6391 634.495 99.8081C634.534 99.9406 634.582 99.9584 634.61 99.9845C634.667 100.024 634.681 100.022 634.693 100.026C634.71 100.03 634.705 100.027 634.706 100.026C634.698 100.019 634.68 100.01 634.657 100.001C634.617 99.984 634.567 99.9653 634.521 99.9467C634.326 99.8713 634.125 99.7883 633.885 99.7251C633.772 99.6946 633.414 100.069 633.216 99.7374C632.997 99.3745 633.351 97.956 632.765 98.2582C632.53 98.3789 632.11 100.182 631.778 99.2069C631.692 99.2261 631.584 99.2346 631.538 99.2391C631.519 99.2375 631.503 99.2367 631.49 99.2361C631.488 99.2371 631.463 99.2314 631.499 99.241C631.505 99.2431 631.503 99.2416 631.523 99.2502C631.538 99.2596 631.562 99.2587 631.615 99.326C631.64 99.359 631.666 99.4342 631.648 99.5032C631.627 99.5727 631.609 99.5847 631.589 99.6071C631.451 99.7044 631.484 99.6559 631.47 99.6676C631.46 99.669 631.458 99.6688 631.457 99.6687C631.456 99.6686 631.458 99.6682 631.46 99.6678C631.48 99.6651 631.51 99.6636 631.537 99.6627C631.592 99.6609 631.647 99.6616 631.703 99.664C631.812 99.6689 631.924 99.6807 632.034 99.6946C632.254 99.7224 632.473 99.7586 632.696 99.7659C632.931 99.7737 633.171 99.7486 633.416 99.6446C633.453 99.6297 633.563 99.1197 633.648 99.1266C633.77 99.1377 633.841 99.3759 633.928 99.3915C634.301 99.4626 634.639 99.2577 634.997 99.2878C635.133 99.2987 635.087 99.5453 635.249 99.5583C635.411 99.5709 635.517 99.2458 635.738 99.4009C635.904 99.5191 636.076 100.181 636.298 100.256C636.3 99.6018 636.451 99.614 636.718 99.4379C636.769 99.4038 636.711 99.1768 636.735 99.1489C636.833 99.0303 636.927 99.2178 637.02 99.0886C637.042 99.0576 637.04 98.8342 637.058 98.7962C637.212 98.4649 637.481 98.9628 637.528 99.0494C637.707 99.3783 637.782 99.086 637.917 99.2137C638.053 99.3413 637.859 99.5097 638.016 99.5853C638.229 99.6874 638.48 99.7018 638.72 99.6972C638.85 99.6946 638.97 99.6869 639.087 99.6839C639.219 99.6791 639.112 99.3865 639.13 99.3789C639.387 99.2888 639.707 99.5779 639.771 98.9687C639.963 99.7173 640.024 99.6693 640.054 99.4682C640.069 99.3675 640.082 99.2274 640.098 99.1268C640.105 99.0772 640.115 99.0348 640.111 99.021C640.109 99.0152 640.097 99.0156 640.081 99.0498C640.06 99.0854 640.076 99.1518 640.096 99.1373C640.097 99.1367 640.099 99.1356 640.104 99.1339L640.121 99.1778C640.173 99.1306 640.523 98.8784 640.752 98.8227C640.765 98.8512 640.802 98.9328 640.807 98.9639C640.865 98.9798 640.965 99.0629 640.925 99.326C640.845 99.6757 640.621 99.7907 640.53 99.8384C640.423 99.8883 640.35 99.8954 640.283 99.9031C640.15 99.9161 640.053 99.9163 639.968 100.013C639.933 100.06 639.751 100.766 639.719 100.809C639.469 101.155 639.361 100.072 639.344 100.014C639.157 99.3828 638.931 100.128 638.857 100.182C638.819 100.212 638.781 100.235 638.743 100.255C638.467 100.399 638.219 100.304 637.982 100.456C637.805 100.568 637.802 101.279 637.661 101.26C637.189 101.197 637.016 100.207 636.589 101.073C636.497 101.257 636.599 102.033 636.256 101.426C636.234 101.387 635.98 100.831 635.839 101.185C635.821 101.23 635.823 101.456 635.8 101.476C635.641 101.6 635.533 101.42 635.359 101.508C635.186 101.595 634.977 101.725 634.778 101.649C634.658 101.603 634.503 101.182 634.446 101.079C634.284 100.782 634.112 101.27 634.012 100.91C633.91 100.548 634.105 99.9974 633.842 99.7638C633.834 100.352 633.811 100.956 633.796 101.548C633.427 101.535 633.061 101.453 632.696 101.402C632.485 101.373 632.28 101.354 632.067 101.363C631.997 101.367 632.069 101.683 631.991 101.695C631.881 101.712 631.778 101.698 631.675 101.674C631.625 101.663 631.574 101.649 631.533 101.636C631.524 101.629 631.461 101.625 631.555 101.616C631.595 101.611 631.558 101.621 631.771 101.591C631.803 101.586 631.82 101.584 631.885 101.57C632.008 101.529 632.134 101.564 632.658 101.239C632.791 101.146 632.96 101.016 633.143 100.783C633.234 100.666 633.326 100.523 633.405 100.35C633.509 100.131 633.602 99.7852 633.6 99.4672C633.606 98.8006 633.304 98.3047 633.093 98.0586C632.872 97.8009 632.705 97.694 632.582 97.6142C632.346 97.4694 632.194 97.4254 632.193 97.4225C632.156 97.4091 632.126 97.399 632.1 97.3906C631.899 97.3297 631.887 97.3362 631.854 97.3282C631.76 97.3122 631.782 97.3186 631.779 97.3191C631.787 97.3231 631.822 97.3305 631.874 97.3418C631.698 97.319 631.778 97.3366 631.775 97.3373C631.79 97.3411 631.807 97.3439 631.832 97.3458C631.872 97.3488 631.927 97.3468 631.977 97.336C632.231 97.2844 632.541 96.9704 632.818 96.9054C632.936 97.5889 633.358 97.3896 633.651 97.4731C633.755 97.5022 633.733 97.6809 633.803 97.745C634.067 97.9828 633.983 97.3797 634.068 97.2923C634.442 96.9221 634.339 98.2613 634.779 98.2734C634.809 98.2778 634.844 98.0938 635.108 97.9523C635.162 97.9403 635.179 97.9164 635.323 97.9336C635.382 97.9458 635.455 97.9615 635.582 98.0124C635.709 98.076 635.897 98.1169 636.251 98.4968C636.408 98.7049 636.679 98.9617 636.718 99.7317C636.727 100.455 636.315 100.978 636.08 101.182C635.576 101.594 635.417 101.567 635.286 101.626C635.048 101.705 635.064 101.714 634.995 101.745C634.946 101.771 634.904 101.794 634.893 101.813C634.822 101.892 634.779 101.947 634.76 101.959C634.443 102.257 634.694 101.711 634.525 101.66C634.502 101.652 634.479 101.645 634.456 101.636C634.2 101.538 634.026 101.403 633.731 101.586C633.638 101.645 633.398 102.082 633.241 101.727C633.22 101.681 633.246 101.444 633.228 101.429C632.911 101.179 632.858 101.922 632.646 102.161C632.434 102.4 632.171 101.862 632.124 101.708C631.998 101.312 632.261 101.556 632.272 101.519C632.408 101.08 632.189 101.14 632.027 101.087C632.042 100.841 632.025 100.681 631.998 100.601C631.941 100.443 631.838 100.596 631.849 101.032C631.851 101.075 631.902 101.074 631.952 101.073C631.983 101.072 632.014 101.072 632.027 101.087C631.994 101.195 631.959 101.287 631.924 101.365C631.708 101.787 631.454 101.733 631.311 101.141C631.232 100.813 631.393 100.464 631.014 100.548C630.845 100.588 630.843 101.095 630.691 101.214C630.349 101.488 629.997 100.985 629.659 101.039C629.538 101.058 629.638 101.34 629.555 101.363C629.338 101.425 629.157 101.21 628.933 101.309C628.913 101.318 628.951 101.608 628.884 101.609C628.713 101.615 628.555 101.598 628.39 101.573C628.053 101.522 627.717 101.434 627.336 101.427C627.062 101.422 626.568 101.579 626.283 101.546C625.789 101.491 625.179 101.071 624.756 101.174C624.48 101.24 624.542 101.528 624.424 101.725C624.199 102.107 623.793 101.427 623.739 101.322C623.736 101.318 623.974 101.249 623.845 101.101C623.77 100.793 623.742 101.32 623.739 101.322C623.715 101.28 623.529 101.24 623.367 101.229C623.265 101.223 623.176 101.227 623.142 101.249C623.091 101.28 623.123 101.553 623.097 101.564C622.906 101.644 622.712 101.707 622.529 101.754C622.438 101.778 622.348 101.797 622.267 101.813C622.227 101.82 622.189 101.827 622.162 101.832C622.148 101.835 622.137 101.837 622.137 101.838C622.139 101.839 622.141 101.839 622.161 101.837C622.17 101.836 622.183 101.835 622.219 101.831C622.239 101.828 622.259 101.825 622.32 101.814C622.344 101.809 622.399 101.801 622.516 101.769C622.545 101.761 622.577 101.754 622.696 101.712C622.812 101.664 622.952 101.636 623.313 101.388C623.371 101.341 623.355 101.377 623.615 101.133C623.817 100.925 624.125 100.578 624.285 99.9353C624.46 99.299 624.268 98.4427 623.945 97.9926C623.629 97.5219 623.324 97.3304 623.118 97.2037C623.065 97.1727 623.016 97.1467 622.971 97.1242C622.931 97.1045 622.936 97.1068 622.918 97.0986C622.892 97.0862 622.867 97.075 622.843 97.0648C622.796 97.0443 622.753 97.0275 622.714 97.0131C622.635 96.9844 622.571 96.965 622.516 96.9498C622.3 96.8924 622.203 96.8849 622.122 96.8748C622.248 96.8823 622.533 96.9247 622.755 96.9894C622.766 96.9958 622.724 97.2992 622.751 97.3105C623.135 97.4789 623.331 97.1133 623.829 96.9457C623.877 96.938 623.908 96.9266 624.054 96.9413C624.101 96.9475 624.157 96.9554 624.255 96.9785C624.364 97.0144 624.476 97.0109 624.908 97.2456C625.021 97.3117 625.161 97.3995 625.345 97.5635C625.274 97.4665 626.576 98.6387 626.129 100.193C625.648 101.615 624.922 101.749 624.683 101.912C624.54 101.977 624.417 102.018 624.36 102.035C624.337 102.043 624.316 102.049 624.295 102.055C623.726 102.194 623.806 102.146 623.719 102.166C623.531 102.195 623.513 102.204 623.444 102.213C623.153 102.257 622.956 102.105 622.82 101.708C622.549 101.761 622.205 101.502 622.014 101.345C621.823 101.187 621.742 101.777 621.722 101.787C621.121 102.109 620.849 101.739 620.242 101.605C620.186 101.592 620.117 101.582 620.024 101.57C619.975 101.563 619.932 101.558 619.838 101.543C619.818 101.54 619.79 101.535 619.746 101.526C619.688 101.512 619.703 101.524 619.477 101.453C619.421 101.434 619.352 101.41 619.243 101.36C619.2 101.34 619.234 101.359 619.107 101.292C618.968 101.208 618.768 101.125 618.426 100.736C618.261 100.538 618.046 100.229 617.934 99.7466C617.814 99.2719 617.886 98.6387 618.107 98.2045C618.324 97.7613 618.599 97.5095 618.802 97.353C618.853 97.3145 618.908 97.2767 618.945 97.2527C618.961 97.2419 618.978 97.2316 618.993 97.2218C619.025 97.2022 619.055 97.1846 619.084 97.1685C619.539 96.9328 619.692 96.9385 619.824 96.906C619.942 96.8849 620.036 96.878 620.057 96.876C620.163 96.8672 620.218 96.8665 620.267 96.8653C620.503 96.8403 620.768 96.7922 620.942 96.7521C621.165 96.6997 621.3 96.8391 621.505 96.75C621.533 96.738 621.505 96.473 621.514 96.4628C621.743 96.1458 621.633 96.7936 621.68 96.9093C621.748 97.0745 621.805 97.2094 621.868 97.3004C621.899 97.3458 621.933 97.3803 621.967 97.4021C621.987 97.4129 622.005 97.4207 622.024 97.425C622.027 97.4261 622.035 97.4269 622.039 97.4276C622.042 97.4279 622.043 97.4282 622.047 97.4284C622.048 97.4285 622.05 97.4286 622.051 97.4287C622.052 97.4287 622.052 97.4288 622.053 97.4288C622.053 97.4288 622.053 97.4288 622.053 97.4288C622.053 97.4289 622.053 97.4289 622.053 97.4289C622.053 97.4289 622.054 97.4289 622.054 97.4289C622.054 97.4289 622.054 97.4289 622.054 97.4289C622.054 97.4289 622.054 97.4289 622.054 97.4289C622.054 97.4289 622.054 97.4289 622.054 97.4289C622.054 97.4289 622.054 97.4289 622.054 97.4289C622.054 97.4289 622.054 97.4289 622.054 97.4289C622.054 97.4289 622.054 97.4289 622.054 97.4289C622.054 97.4289 622.054 97.4289 622.054 97.4289C622.054 97.4289 622.054 97.4289 622.054 97.4289C622.054 97.4289 622.054 97.4289 622.054 97.4289C622.054 97.4289 622.054 97.4289 622.054 97.4289C622.054 97.4289 622.054 97.4289 622.054 97.4289C622.054 95.4393 622.054 103 622.054 101.01C622.054 101.01 622.054 101.01 622.054 101.01C622.054 101.01 622.054 101.01 622.054 101.01C622.054 101.01 622.054 101.01 622.054 101.01C622.054 101.01 622.054 101.01 622.054 101.01C622.054 101.01 622.054 101.01 622.054 101.01C622.043 101.01 622.035 101.01 622.021 101.012C621.946 101.017 621.887 101.039 621.813 101.08C621.737 101.124 621.481 102.049 621.326 102.096C621.126 102.155 621.222 101.826 621.006 101.892C620.986 101.897 620.978 102.104 620.838 102.084C620.693 102.062 620.543 102.036 620.326 101.989C620.272 101.976 620.273 101.981 620.008 101.918C619.969 101.907 619.924 101.896 619.84 101.87C619.762 101.842 619.65 101.818 619.358 101.671C619.31 101.646 619.142 101.558 618.963 101.424C618.87 101.354 618.764 101.268 618.644 101.148C618.585 101.089 618.522 101.021 618.457 100.941C618.389 100.855 618.339 100.8 618.213 100.595C617.998 100.244 617.794 99.6915 617.805 99.0806C617.793 98.4944 618.09 97.8146 618.235 97.6098C618.553 97.1073 618.867 96.8813 619.086 96.7301C619.196 96.6572 619.304 96.5978 619.369 96.5648C619.415 96.5409 619.458 96.5205 619.498 96.5025C619.578 96.4668 619.645 96.4407 619.704 96.4195C619.821 96.3775 619.909 96.3541 619.948 96.3438C620.325 96.2554 620.312 96.2777 620.4 96.2649C620.612 96.2497 620.659 96.258 620.739 96.2601C620.881 96.2672 620.992 96.2775 621.104 96.2858C621.323 96.3028 621.529 96.3137 621.733 96.3035C621.802 96.3007 621.709 95.9745 621.811 95.9652C621.825 95.9639 621.839 95.9627 621.853 95.9615C622.316 95.9226 622.812 95.9361 623.253 96.083C623.365 96.1213 623.296 96.3506 623.32 96.4185C623.471 96.8295 623.679 96.2307 623.714 96.2192C624.539 95.9285 625.186 96.4693 625.999 96.2047C626.012 96.2005 626.039 96.1511 626.082 96.0914C626.102 96.0326 626.228 95.9594 626.123 95.9197C626.104 95.9184 626.079 95.9173 626.022 95.9201C625.992 95.9217 625.955 95.924 625.892 95.9312C625.861 95.9372 625.924 95.9187 625.639 95.9745C625.491 96.0203 625.354 95.9953 624.739 96.3208C624.456 96.5207 623.811 96.7794 623.323 98.0506C623.098 98.6742 623.115 99.522 623.346 100.119C623.571 100.733 623.896 101.1 624.138 101.333C624.64 101.789 624.913 101.872 625.106 101.962C625.289 102.038 625.437 102.078 625.477 102.089C625.517 102.1 625.552 102.109 625.582 102.117C625.644 102.131 625.69 102.141 625.729 102.148C626.006 102.198 626.026 102.191 626.065 102.198C626.084 102.201 626.097 102.204 626.106 102.206C626.144 102.215 626.135 102.22 626.134 102.223C626.128 102.23 626.106 102.228 626.088 102.217C626.047 102.194 626.005 102.129 625.975 102.001C625.965 101.965 625.828 101.399 625.685 101.782C625.677 101.806 625.766 102.097 625.602 102.065C625.434 102.033 625.161 102.223 624.932 101.901C624.86 101.8 624.693 101.237 624.466 101.681C624.451 101.712 624.095 102.719 623.982 102.019C623.964 101.904 623.996 101.166 623.724 101.541C623.671 101.613 623.761 101.779 623.625 101.88C623.529 101.95 623.422 101.947 623.305 101.952C623.311 101.953 623.322 101.955 623.356 101.957C623.379 101.957 623.412 101.958 623.469 101.955C623.498 101.954 623.522 101.954 623.63 101.943C623.734 101.928 623.861 101.922 624.186 101.821C624.298 101.746 624.817 101.757 625.625 100.794C626.024 100.312 626.348 99.3169 626.18 98.5049C626.111 98.104 625.969 97.775 625.827 97.5291C625.757 97.4071 625.675 97.2903 625.618 97.2152C625.586 97.174 625.556 97.1358 625.526 97.1002C625.036 96.553 624.779 96.4731 624.603 96.3684C624.432 96.2821 624.317 96.2415 624.263 96.2214C624.226 96.2076 624.195 96.1969 624.168 96.1878C624.064 96.1533 624.001 96.1371 623.985 96.1305C623.935 96.114 623.918 96.105 623.913 96.0966C623.897 96.0641 623.96 96.0235 624.017 95.9405C624.055 95.8874 624.264 95.4104 624.347 95.8041C624.361 95.8658 624.29 96.1054 624.358 96.1417C624.679 96.3145 625.07 96.1911 625.413 96.3975C625.538 96.4703 625.43 96.86 625.554 96.9797C625.68 97.0996 625.942 97.2278 626.103 97.0598C626.261 96.8914 626.164 96.2447 626.381 96.2135C627.011 96.1217 627.615 96.2907 628.227 96.4469C628.51 96.5219 628.794 96.5915 629.081 96.6237C629.211 96.6381 629.114 96.4061 629.305 96.4104C629.757 96.4209 630.366 96.3445 631.037 96.4113C631.142 96.4219 631.241 96.4358 631.359 96.4555C631.42 96.4657 631.475 96.4762 631.58 96.4928C631.606 96.497 631.642 96.5021 631.69 96.5091C631.716 96.5129 631.755 96.518 631.802 96.5253C631.82 96.5282 631.871 96.5355 631.924 96.5448C631.997 96.56 631.984 96.5487 632.26 96.6203C632.324 96.6384 632.402 96.6616 632.508 96.7004C632.56 96.7199 632.62 96.7435 632.691 96.7746C632.726 96.7902 632.764 96.8078 632.806 96.828C632.853 96.8532 632.859 96.8477 633.074 96.9764C633.369 97.2012 634.223 97.6026 634.528 99.1982C634.806 100.852 633.466 102.054 633.449 102.029C633.059 102.349 632.822 102.442 632.648 102.52C632.322 102.655 632.13 102.685 632.111 102.692C632.053 102.704 632.007 102.713 631.969 102.719C631.807 102.745 631.787 102.743 631.738 102.748C631.65 102.754 631.628 102.752 631.59 102.752C631.235 102.724 631.15 102.655 630.997 102.569C630.429 102.191 631.129 101.886 630.701 101.735C630.623 101.706 630.543 101.802 630.47 101.931C630.361 102.132 630.27 102.411 630.241 102.426C629.77 102.665 629.447 102.34 629.028 102.442C628.942 102.463 629.028 102.762 628.954 102.776C628.703 102.829 628.439 102.697 628.199 102.722C628.092 102.734 628.113 102.962 628.014 102.945C627.777 102.906 627.568 102.811 627.337 102.597C627.316 102.578 627.457 102.293 627.282 102.283C626.999 102.267 626.648 102.057 626.324 102.277C626.228 102.343 626.226 102.865 626.019 102.505C625.975 102.43 626.027 101.803 625.789 102.346C625.749 102.436 625.351 103.169 625.152 102.699C625.106 102.593 624.998 102.201 624.899 102.143C624.882 102.134 624.865 102.134 624.849 102.145C624.833 102.158 624.898 102.438 624.804 102.466C624.471 102.561 624.121 102.535 623.793 102.63C623.706 102.655 623.842 102.943 623.713 102.972C623.417 103.038 623.115 103.012 622.743 102.96C622.668 102.949 622.597 102.935 622.53 102.921C622.391 102.892 622.477 102.648 622.467 102.623C622.29 102.203 622.218 102.781 622.167 102.816C621.849 103.029 621.595 102.769 621.313 102.855C621.235 102.878 621.305 103.149 621.291 103.174C621.145 103.42 621.238 102.923 621.134 102.874C620.845 102.736 620.547 102.779 620.334 102.839C620.258 102.861 620.379 103.167 620.315 103.182C620.155 103.224 620.031 103.264 620.088 103.235C620.118 103.203 620.532 103.082 620.97 102.451C620.925 102.48 620.894 102.488 620.88 102.471C620.865 102.434 620.655 102.307 620.611 102.272C620.457 102.149 620.516 102.133 620.66 102.034C620.803 101.945 621.013 101.731 621.054 101.624C621.112 101.49 621.15 101.336 621.166 101.18C621.211 100.307 620.837 99.6468 620.158 99.1018C620.09 99.0482 619.927 98.9286 619.775 98.844C619.618 98.7553 619.493 98.7023 619.397 98.6643C619.211 98.5937 619.139 98.5775 619.092 98.5594C618.934 98.4961 619.143 98.5182 619.252 98.5171C619.382 98.5215 619.531 98.5329 619.681 98.5484C619.983 98.5796 620.295 98.6284 620.608 98.6866C621.13 98.7838 621.646 98.9064 622.094 99.0083C623.377 99.2981 624.354 99.6658 625.605 99.7774C625.684 99.7848 625.649 99.4514 625.718 99.4536C626.403 99.4874 627.065 99.6416 627.746 99.7281C627.954 99.7546 628.162 99.7752 628.374 99.785C628.449 99.7891 628.388 99.4678 628.511 99.4642C628.764 99.4549 629.074 99.5202 629.308 99.6577C629.422 99.7241 629.218 99.9594 629.332 100.021C629.598 100.164 629.908 100.239 630.166 100.231C630.272 100.226 630.171 99.8907 630.299 99.9074C630.411 99.9208 630.48 99.9252 630.518 99.9249C631.624 100.008 632.666 100.194 633.639 100.79C633.717 100.837 633.635 101.477 633.836 101.401C633.893 101.232 633.944 101.029 633.997 100.846C634.201 100.886 634.403 100.933 634.605 100.987C634.713 101.016 634.826 101.047 635.001 101.105C635.094 101.137 635.189 101.166 635.394 101.255C635.504 101.308 635.622 101.348 635.93 101.55C636.101 101.687 636.305 101.747 636.781 102.398C636.983 102.69 637.355 103.38 637.305 104.283C637.287 104.725 637.14 105.199 636.982 105.503C636.829 105.807 636.648 106.043 636.479 106.224C635.891 106.81 635.629 106.855 635.432 106.959C635.254 107.036 635.134 107.072 635.044 107.099C634.86 107.151 634.764 107.168 634.675 107.185C634.508 107.215 634.406 107.225 634.314 107.234C634.134 107.251 634.007 107.256 633.881 107.26C632.631 107.275 631.725 107.15 630.746 107.15C630.685 107.149 630.798 107.487 630.679 107.489C630.439 107.492 630.206 107.509 630.007 107.52C629.53 107.544 629.057 107.53 628.563 107.338C628.488 107.309 628.493 106.71 628.28 106.812C628.242 106.831 627.92 106.928 627.844 107.063C627.833 107.083 627.908 107.358 627.805 107.373C627.209 107.45 626.58 107.428 626.037 107.314C626.027 107.313 626.018 107.312 626.008 107.312C625.864 107.297 625.984 106.987 625.887 106.973C625.261 106.866 624.733 107.111 624.206 106.859C623.859 106.688 623.971 106.171 623.781 105.669C623.755 105.599 623.545 105.591 623.531 105.296C623.497 104.557 623.583 103.746 623.534 102.958C623.521 102.789 623.297 102.972 623.428 102.562C623.434 102.534 623.605 102.396 623.646 102.256C623.675 102.159 623.616 101.861 623.674 101.737C623.732 101.612 623.806 101.861 623.906 101.714C624.007 101.564 623.95 101.226 624.157 101.178ZM621.173 100.631C621.021 100.327 620.876 101.364 621.105 101.138C621.117 101.125 621.18 100.646 621.173 100.631ZM632.652 100.548C632.418 100.086 632.258 100.765 632.423 101.122C632.588 101.478 632.724 100.688 632.652 100.548ZM635.075 100.206C634.8 99.8437 634.763 101.328 635.056 101.027C635.073 101.01 635.091 100.227 635.075 100.206ZM624.594 105.499C624.591 105.486 624.444 105.478 624.441 105.492C624.374 105.827 624.671 105.842 624.594 105.499ZM637.48 99.8143C637.391 99.6152 637.149 99.851 637.259 100.099C637.348 100.298 637.591 100.062 637.48 99.8143ZM625.666 98.9145C625.667 98.9301 625.773 98.9434 625.77 98.8553C625.761 98.5713 625.618 98.6524 625.666 98.9145ZM639.833 97.8969C639.888 97.967 639.923 98.0511 639.938 98.1392C639.939 98.141 639.944 98.1461 639.945 98.148C639.996 98.6789 639.402 99.3785 639.153 98.8595C639.099 98.7496 639.619 98.8241 639.614 98.6363C639.612 98.5547 639.569 98.5108 639.507 98.4848C639.317 98.4237 638.961 98.5915 639.032 98.218C639.049 98.1276 639.807 97.857 639.835 97.8966C639.835 97.8967 639.834 97.8968 639.833 97.8969ZM621.205 99.3701C621.204 99.3561 621.062 99.3268 621.058 99.34C620.942 99.6614 621.228 99.7207 621.205 99.3701ZM625.536 99.7961C625.542 99.8265 625.872 99.8853 625.884 99.859C626.107 99.334 625.444 99.2141 625.536 99.7961ZM627.375 98.5486C627.535 98.2156 627.724 98.1782 627.845 98.5995C627.688 98.5753 627.533 98.5705 627.375 98.5486Z" fill="#D4AF37"/>
<path d="M616.53 97.0263C616.723 96.8468 616.986 96.8621 617.172 96.945C617.231 96.9704 617.262 97.1549 617.303 97.1811C617.383 97.2324 617.41 97.1298 617.489 97.1971C617.514 97.2204 617.572 97.5095 617.596 97.5277C617.729 97.6254 617.797 97.5303 617.903 97.568C618.417 97.7575 618.801 97.7924 619.199 97.8448C619.254 97.8522 619.322 97.8973 619.389 97.9365C619.49 97.9886 619.59 98.0307 619.656 97.9488C619.669 97.932 619.61 97.6808 619.609 97.6593C619.595 97.3305 619.679 97.8447 619.723 97.9066C619.898 98.1511 620.035 98.1499 620.133 98.0314C620.175 97.9801 620.036 97.4844 620.136 97.7588C620.143 97.7773 620.178 98.0492 620.196 98.0756C620.238 98.135 620.288 98.0767 620.315 98.094C620.368 98.1288 620.375 98.1248 620.418 98.1206C620.478 98.1172 620.57 98.2399 620.622 98.1684C620.633 98.1524 620.57 97.8782 620.583 97.8275C620.597 97.7769 620.658 97.7912 620.688 97.8535C620.717 97.9158 620.744 98.135 620.755 98.1844C620.851 98.6016 620.822 98.0073 620.828 97.9915C620.943 97.7211 621.126 98.034 621.268 98.012C621.377 97.9945 621.477 97.8677 621.583 97.8682C621.708 97.8699 621.834 98.0063 621.949 97.9644C621.962 97.9603 621.903 97.635 621.918 97.6293C622.078 97.5693 622.247 97.5839 622.439 97.7849C622.459 97.8054 622.472 98.0957 622.494 98.1334C622.624 98.3574 622.843 98.9081 622.765 97.6471C622.841 97.6881 622.933 97.7296 623.024 97.9763C623.028 97.988 623.032 98.0006 623.035 98.0138C623.071 98.1804 623.075 98.4432 623.099 98.3151C623.105 98.2843 623.064 98.0106 623.075 97.9851C623.125 97.8778 623.218 97.9581 623.277 97.8089C623.288 97.7779 623.26 97.5316 623.26 97.4868C623.262 97.1235 623.378 97.7128 623.394 97.755C623.518 98.0688 623.575 97.9364 623.663 97.9375C623.683 97.9379 623.634 97.6079 623.652 97.5963C623.75 97.541 623.856 97.5621 623.963 97.7029C623.986 97.7351 623.986 98.0193 623.998 98.0491C624.051 98.1773 624.027 97.6422 624.077 97.7549C624.088 97.7779 624.098 98.0205 624.102 98.047C624.155 98.4629 624.14 97.8697 624.145 97.8562C624.218 97.6723 624.311 98.2868 624.385 98.1945C624.394 98.1828 624.354 97.8776 624.38 97.8635C624.557 97.768 624.754 97.8416 624.945 98.0774C624.974 98.1137 624.967 98.3451 624.97 98.3734C625.021 98.8157 625.008 98.2201 625.016 98.1973C625.03 98.161 625.046 98.1566 625.061 98.1644C625.118 98.1918 625.177 98.3712 625.192 97.8169C625.518 98.0491 625.817 97.6442 626.129 98.2749C626.133 98.2822 626.131 98.5755 626.138 98.5888C626.232 98.7521 626.209 98.2967 626.263 97.7385C626.276 97.5984 626.331 98.2708 626.335 98.3201C626.352 98.5017 626.342 98.9381 626.347 98.9732C626.391 99.2492 626.37 97.8066 626.426 97.8056C626.428 97.808 626.423 98.0736 626.428 98.0999C626.443 98.1827 626.457 98.077 626.472 98.1683C626.507 98.3796 626.523 99.0805 626.57 98.6721C626.576 98.6191 626.56 97.8008 626.611 97.8391C626.631 97.8551 626.72 97.8405 626.745 97.8935C626.77 97.9463 626.754 98.2101 626.756 98.2215C626.824 98.57 626.799 98.7146 626.834 99.2308C626.869 99.745 626.855 98.5183 626.868 98.3813C626.882 98.2447 626.931 98.5323 626.943 98.6323C626.955 98.7323 626.941 98.9 626.952 98.9566C627.022 99.3264 626.981 98.3476 627.004 98.1528C627.058 97.6917 627.102 98.6014 627.152 98.6906C627.165 98.7146 627.154 98.5074 627.166 98.488C627.214 98.414 627.242 98.6979 627.297 98.4377C627.305 98.3953 627.35 97.8484 627.378 98.2498C627.382 98.3077 627.37 98.5344 627.39 98.5852C627.421 98.6615 627.475 98.7112 627.508 98.6355C627.532 98.5795 627.505 98.2059 627.535 98.322C627.549 98.3739 627.523 98.5923 627.548 98.6715C627.573 98.7507 627.637 98.7414 627.662 98.7339C627.686 98.7263 627.674 98.4429 627.676 98.4238C627.688 98.3145 627.736 98.1781 627.74 98.1784C627.95 98.1448 628.139 98.6238 628.343 98.4674C628.359 98.4556 628.351 98.1567 628.353 98.1518C628.409 98.027 628.359 98.8211 628.395 99.0874C628.395 98.481 628.416 98.5909 628.455 98.5248C628.474 98.4924 628.466 98.2575 628.468 98.2335C628.499 97.8771 628.514 98.3379 628.518 98.4322C628.533 98.779 628.556 98.3696 628.567 98.6014C628.577 98.8315 628.545 99.1721 628.582 99.1681C628.594 98.9512 628.572 98.3837 628.601 98.292C628.71 97.9452 628.903 98.3923 628.987 98.4395C629.072 98.4866 629.098 98.4468 629.147 98.5258C629.235 98.6687 629.207 98.2475 629.264 98.0554C629.321 97.8635 629.283 98.8987 629.288 99.1213C629.294 99.3439 629.305 99.115 629.313 99.2374C629.322 99.3598 629.299 99.5109 629.321 99.5571C629.344 99.6032 629.41 99.2081 629.421 98.9754C629.443 98.4825 629.421 97.9647 629.48 98.1472C629.483 98.158 629.469 98.4302 629.482 98.4579C629.585 98.6687 629.693 98.6829 629.798 98.8695C629.812 98.8956 629.795 99.1983 629.804 99.2169C629.888 99.4116 629.864 98.9006 629.918 98.3337C629.899 99.0886 629.921 99.5509 629.987 99.556C630.028 99.5594 630.024 99.2296 630.052 98.9974C630.061 98.9274 630.086 99.1541 630.093 98.9991C630.106 98.696 630.104 98.3711 630.114 98.2074C630.121 98.0973 630.134 98.0601 630.162 98.1512C630.165 98.162 630.152 98.4394 630.162 98.4563C630.23 98.5671 630.243 98.0369 630.32 97.9739C630.381 97.9244 630.478 98.2495 630.544 98.3036C630.525 99.1523 630.589 98.9593 630.629 98.3748C630.672 98.3998 630.72 98.368 630.758 98.4501C630.772 98.478 630.755 98.7235 630.756 98.75C630.771 99.1673 630.807 98.5987 630.817 98.5766C630.925 98.3629 630.991 98.7971 631.104 98.3795C631.108 98.3645 631.138 97.7755 631.146 98.2068C631.146 98.2365 631.103 98.5033 631.148 98.5259C631.192 98.5486 631.263 98.8683 631.337 98.5985C631.356 98.5335 631.421 98.0576 631.432 98.4327C631.433 98.4837 631.419 98.6523 631.42 98.7466C631.423 99.047 631.466 98.4525 631.46 98.9593C631.454 99.4662 631.475 99.8472 631.557 99.5023C631.559 99.4923 631.604 99.0217 631.623 99.0305C631.654 99.0448 631.691 99.1459 631.724 99.1452C631.739 99.1446 631.75 98.8513 631.753 98.8461C631.87 98.6897 631.929 98.9565 632.03 99.0793C632.049 99.1024 632.144 98.7093 632.155 99.0281C632.166 99.377 631.983 100.806 632.108 100.474C632.156 100.341 632.404 98.5295 632.372 99.4786C632.539 99.2616 632.601 99.7583 632.784 99.447C632.792 99.4333 632.889 98.9321 632.903 98.9414C632.924 98.9559 632.9 99.1934 632.913 99.2114C632.967 99.2927 633.061 99.1016 633.12 99.144C633.142 99.1596 633.091 99.4008 633.117 99.4194C633.142 99.4371 633.214 99.1427 633.229 99.268C633.23 99.2726 633.23 99.2776 633.231 99.283C633.243 99.4072 633.107 100.058 633.067 100.127C633.266 99.5044 633.274 99.5186 633.387 99.3807C633.41 99.3549 633.5 99.1452 633.517 99.123C633.599 99.0323 633.53 99.21 633.622 99.1175C633.645 99.0958 633.769 98.9099 633.797 98.8837C634.064 98.664 633.854 99.157 633.781 99.213C633.567 99.4721 633.805 99.3099 633.719 99.419C633.619 99.5092 633.459 99.557 633.397 99.6105C633.381 99.6223 633.367 99.6319 633.355 99.6399C633.263 99.6913 633.292 99.7039 633.287 99.7421C633.286 99.7577 633.582 99.7235 633.589 99.725C633.668 99.7737 633.351 99.8152 633.945 99.8525C632.408 99.8544 634.094 99.8868 633.782 99.9556C633.757 99.9608 633.032 99.921 632.926 99.8994C632.821 99.8791 633.048 99.8643 632.883 99.8415C632.844 99.832 632.163 99.8159 632.122 99.8217C631.8 99.8381 632.885 99.7956 632.944 99.7879C633.586 99.7332 632.851 99.7613 632.803 99.7867C632.625 99.8234 632.684 99.8543 632.666 99.9356C632.662 99.9586 632.652 99.9857 632.631 100.023C632.567 100.127 631.994 100.552 632.089 100.637C632.248 100.772 632.516 100.637 632.656 100.553C632.804 100.472 632.829 100.449 632.733 100.876C632.685 101.055 632.404 101.783 632.725 101.245C632.755 101.214 632.942 100.686 632.871 101.031C632.864 101.075 632.817 101.297 632.816 101.316C632.816 101.335 632.816 101.347 632.817 101.354L632.856 101.361C632.828 101.395 632.831 101.274 632.795 101.343C632.751 101.423 632.698 101.544 632.682 101.463C632.671 101.415 632.719 100.995 632.727 100.892C632.751 100.594 632.646 101.071 632.688 100.713C632.729 100.353 632.848 99.8148 632.84 99.5766C632.747 100.158 632.65 100.754 632.556 101.338C632.477 101.305 632.422 101.105 632.331 101.119C632.32 101.122 632.291 101.437 632.278 101.448C632.225 101.492 632.21 101.263 632.15 101.346C632.103 101.412 632.024 101.74 631.977 101.82C632.021 101.148 631.936 101.369 631.897 101.304C631.883 101.281 631.901 101.102 631.895 101.043C631.87 100.823 631.838 101.417 631.818 101.51C631.735 101.904 631.845 100.561 631.778 100.589C631.774 100.59 631.679 101.303 631.671 101.347C631.614 101.635 631.684 101.097 631.666 101.043C631.634 100.943 631.618 100.77 631.556 100.977C631.538 101.038 631.477 101.482 631.472 101.135C631.472 101.09 631.489 100.853 631.487 100.839C631.449 100.605 631.402 101.349 631.359 101.599C631.316 101.849 631.301 101.333 631.3 101.185C631.297 100.8 631.327 101.022 631.331 100.984C631.371 100.538 631.334 100.613 631.31 100.574C631.346 99.8434 631.305 99.8852 631.285 100.536C631.283 100.607 631.306 100.54 631.31 100.574C631.248 101.289 631.206 101.378 631.196 100.707C631.191 100.392 631.228 100.027 631.157 100.158C631.125 100.217 631.114 100.72 631.083 100.856C631.013 101.167 630.958 100.695 630.896 100.766C630.873 100.792 630.884 101.068 630.868 101.096C630.826 101.169 630.801 100.961 630.758 101.066C630.754 101.076 630.754 101.364 630.741 101.368C630.649 101.398 630.574 101.212 630.479 101.204C630.432 101.201 630.347 101.358 630.299 101.326C630.23 101.281 630.156 100.995 630.087 100.944C630.071 100.932 630.056 100.932 630.041 100.951C629.99 101.016 629.998 101.304 629.974 101.501C629.928 101.881 629.863 101.198 629.854 101.092C629.853 101.089 629.898 101.021 629.876 100.873C629.866 100.564 629.854 101.091 629.854 101.092C629.847 101.024 629.763 100.958 629.745 101.013C629.735 101.043 629.738 101.316 629.733 101.326C629.615 101.57 629.5 101.638 629.385 101.509C629.383 101.503 629.389 101.198 629.384 101.188C629.32 101.052 629.271 101.425 629.214 101.647C629.157 101.868 629.114 101.793 629.087 101.268C629.045 101.333 628.988 101.101 628.954 100.96C628.921 100.818 628.911 101.414 628.907 101.425C628.81 101.801 628.759 101.46 628.662 101.406C628.615 101.379 628.524 101.464 628.473 101.529C628.432 101.581 628.41 101.441 628.373 101.53C628.368 101.542 628.371 101.807 628.369 101.817C628.326 102.134 628.351 101.486 628.343 101.371C628.317 100.95 628.299 100.725 628.246 100.923C628.233 100.968 628.191 101.901 628.169 101.955C628.14 102.024 628.153 101.69 628.123 101.771C628.12 101.777 628.119 101.983 628.101 101.974C628.017 101.934 627.925 101.813 627.837 101.834C627.825 101.836 627.838 102.163 627.821 102.171C627.739 102.209 627.651 102.197 627.572 102.043C627.553 102.005 627.566 101.776 627.562 101.708C627.537 101.296 627.498 101.894 627.492 101.905C627.347 102.192 627.237 101.651 627.091 101.909C627.083 101.924 627.023 102.565 626.994 102.015C626.992 101.979 626.964 101.416 626.941 101.801C626.94 101.825 626.957 102.114 626.928 102.085C626.898 102.056 626.852 102.249 626.811 101.931C626.798 101.831 626.765 101.27 626.729 101.717C626.726 101.749 626.674 102.76 626.649 102.063C626.645 101.948 626.643 101.209 626.601 101.588C626.593 101.662 626.61 101.826 626.588 101.929C626.554 102.088 626.506 101.891 626.467 102.22C626.46 102.278 626.434 102.78 626.405 102.4C626.4 102.34 626.405 102.094 626.392 102.066C626.327 101.935 626.263 102.1 626.197 101.931C626.173 101.871 626.179 101.472 626.154 101.366C626.129 101.26 626.078 101.158 626.056 101.34C626.035 101.523 626.073 102.157 626.038 102.209C625.884 102.432 625.723 102.064 625.57 102.014C625.547 102.007 625.573 102.233 625.541 102.239C625.468 102.252 625.364 102.343 625.277 102.294C625.208 102.266 625.148 102.186 625.093 102.007C624.979 101.625 625.08 101.325 625.001 101.172C624.963 101.099 624.966 101.838 624.959 101.862C624.892 102.102 624.818 101.778 624.752 101.883C624.738 101.904 624.77 102.202 624.758 102.217C624.718 102.272 624.666 102.141 624.626 102.168C624.609 102.181 624.626 102.409 624.609 102.392C624.566 102.355 624.525 102.261 624.473 102.05C624.468 102.03 624.475 101.745 624.444 101.736C624.395 101.723 624.321 101.516 624.281 101.738C624.269 101.804 624.304 102.325 624.246 101.968C624.233 101.893 624.2 101.267 624.196 101.81C624.195 101.9 624.18 102.634 624.116 102.167C624.098 102.043 624.038 101.533 624.026 101.615C624.024 101.628 624.055 101.907 624.042 101.936C623.993 102.031 623.935 102.005 623.89 102.097C623.878 102.123 623.922 102.41 623.904 102.438C623.854 102.516 623.782 102.448 623.723 102.363C623.702 102.331 623.69 102.09 623.687 102.064C623.621 101.643 623.666 102.216 623.662 102.25C623.637 102.454 623.577 102.189 623.511 102.268C623.491 102.29 623.535 102.56 623.533 102.585C623.508 102.828 623.495 102.334 623.457 102.284C623.457 102.284 623.457 102.284 623.457 102.283C623.402 102.135 623.349 102.163 623.307 102.202C623.291 102.218 623.345 102.531 623.33 102.541C623.243 102.606 623.139 102.587 623.022 102.425C622.999 102.394 622.981 102.15 622.971 102.095C622.896 101.71 622.923 102.244 622.92 102.296C622.908 102.531 622.866 102.318 622.835 102.363C622.685 102.584 622.449 102.471 622.27 102.407C622.037 102.325 621.833 102.119 621.635 102.211C621.623 102.216 621.686 102.536 621.676 102.545C621.543 102.645 621.381 102.542 621.254 102.659C621.244 102.667 621.312 102.969 621.297 102.994C621.267 103.046 621.216 103.038 621.161 102.947C621.135 102.904 621.115 102.638 621.089 102.6C621.028 102.51 620.977 102.496 620.941 102.553C620.925 102.578 621.009 102.883 620.986 102.891C620.824 102.952 620.681 103.035 620.443 102.666C620.427 102.641 620.287 102.015 620.289 102.14C620.323 102.315 620.366 102.52 620.405 102.706C620.401 102.709 620.398 102.711 620.394 102.713C620.14 102.859 619.837 102.702 619.589 102.722C619.579 102.723 619.67 103.051 619.65 103.054C619.535 103.075 619.457 103.189 619.278 102.885C619.261 102.856 619.122 102.274 619.114 102.369C619.112 102.387 619.088 102.475 619.111 102.604C619.114 102.623 619.191 102.891 619.181 102.902C619.119 102.962 619.041 102.918 618.95 102.769C618.935 102.744 618.851 102.459 618.839 102.439C618.748 102.302 618.805 102.523 618.713 102.269C618.646 102.1 618.435 101.632 618.211 101.178C618.179 101.115 618.163 101.11 618.028 100.849C617.685 100.193 617.341 99.4591 616.976 98.7603C616.897 98.6094 616.878 98.8262 616.748 98.4304C616.74 98.4037 616.759 98.2411 616.717 98.107C616.689 98.0134 616.532 97.757 616.51 97.6311C616.489 97.5046 616.628 97.7162 616.616 97.5634C616.603 97.4086 616.448 97.1045 616.53 97.0263ZM628.807 100.329C628.777 100.043 628.762 101.089 628.799 100.839C628.801 100.826 628.808 100.343 628.807 100.329ZM632.528 100.323C632.553 99.8601 632.437 100.53 632.416 100.887C632.393 101.243 632.52 100.463 632.528 100.323ZM632.975 100.052C632.99 99.6848 632.733 101.147 632.83 100.859C632.836 100.843 632.974 100.073 632.975 100.052ZM618.224 101.016C618.219 101.003 618.198 100.997 618.203 101.01C618.321 101.321 618.355 101.336 618.224 101.016ZM633.216 99.7264C633.356 99.5825 633.202 99.7551 633.044 99.9486C632.898 100.09 633.021 99.8842 633.216 99.7264ZM627.153 99.2015C627.153 99.1859 627.134 99.1719 627.134 99.2601C627.136 99.5441 627.161 99.4639 627.153 99.2015ZM633.209 100.12C633.274 100.027 634.502 100.052 634.353 100.172C634.326 100.192 633.968 100.087 633.855 100.106C633.65 100.138 634.413 100.247 633.997 100.257C633.921 100.258 633.202 100.125 633.207 100.119C633.208 100.12 633.208 100.12 633.209 100.12ZM628.801 99.0712C628.8 99.0573 628.775 99.0439 628.774 99.0577C628.757 99.3898 628.808 99.417 628.801 99.0712ZM626.064 98.5622C626.062 98.5327 626.001 98.5061 626 98.5333C625.978 99.0772 626.1 99.1326 626.064 98.5622ZM630.545 98.3263C630.581 97.9926 630.616 97.9541 630.629 98.3744C630.601 98.3514 630.573 98.3475 630.545 98.3263Z" fill="#D4AF37"/>
<path d="M625.159 97.3716C625.173 97.3537 625.237 97.3322 625.318 97.3143C625.359 97.3053 625.388 97.282 625.548 97.2766C625.694 97.2717 625.97 97.2748 626.095 97.2713C626.22 97.2677 626.185 97.2606 626.106 97.2534C626.027 97.2462 625.907 97.2391 625.703 97.2124C625.499 97.1857 625.215 97.1396 625.06 97.1158C624.854 97.0844 624.797 97.0634 624.679 97.0509C624.518 97.0338 624.392 97.006 624.347 97.0043C624.328 97.0035 624.313 96.9989 624.008 96.9971C623.703 96.9953 623.107 96.9953 622.789 96.9935C622.45 96.9916 622.361 96.9845 622.243 96.981C622.098 96.9766 621.956 96.9488 621.85 96.9326C621.755 96.9181 621.555 96.8985 621.443 96.8843C621.412 96.8804 621.393 96.8555 621.364 96.8537C621.349 96.8528 621.335 96.8484 622.722 96.8466C624.109 96.8448 626.898 96.8448 628.359 96.8412C629.821 96.8377 629.87 96.8306 629.947 96.8216C630.273 96.7836 630.415 96.748 630.559 96.7302C630.667 96.7167 630.753 96.6942 630.942 96.6515C631.034 96.6307 631.171 96.5905 631.297 96.5636C631.415 96.5384 630.998 96.5975 630.818 96.626C630.76 96.6352 630.724 96.6405 630.692 96.6423C630.674 96.6433 630.653 96.6476 630.034 96.6494C629.414 96.6512 628.197 96.6512 627.56 96.653C626.922 96.6548 626.901 96.6583 626.407 96.6602C625.914 96.662 624.949 96.662 624.432 96.6655C623.916 96.6691 623.877 96.6762 623.699 96.6798C623.521 96.6835 623.205 96.6835 623.035 96.6817C622.851 96.6798 622.709 96.6727 622.508 96.671C622.307 96.6692 622.07 96.6478 621.981 96.6316C621.86 96.6098 621.737 96.619 621.645 96.5994C621.569 96.5831 621.475 96.5796 621.227 96.5742C621.17 96.5724 621.149 96.5689 620.87 96.5671C620.592 96.5652 620.056 96.5652 619.504 96.5652" stroke="currentColor" stroke-width="2" stroke-linecap="round" stroke-linejoin="round"/>
<path d="M621.482 108.378C621.525 108.392 621.625 108.421 621.724 108.442C621.802 108.459 621.865 108.471 621.935 108.485C622.026 108.504 622.112 108.518 622.215 108.535C622.319 108.554 622.641 108.593 622.847 108.627C622.985 108.65 623.123 108.657 623.209 108.659C623.245 108.66 623.266 108.664 624.363 108.666C625.459 108.668 627.631 108.668 628.76 108.67C629.889 108.672 629.91 108.675 629.953 108.677C630.06 108.682 630.14 108.682 630.515 108.688C630.875 108.693 631.581 108.69 631.579 108.69C631.577 108.69 630.847 108.69 630.461 108.691C630.076 108.693 630.058 108.697 628.456 108.699C626.854 108.7 623.668 108.7 620.385 108.7" stroke="currentColor" stroke-width="2" stroke-linecap="round" stroke-linejoin="round"/>
</g>
<defs>
<clipPath id="clip0_0_1">
<rect width="1254" height="1254" fill="white"/>
</clipPath>
</defs>
</svg>
